<svg width="35" height="20" viewBox="0 0 35 20" fill="none" xmlns="http://www.w3.org/2000/svg">
<path d="M23.5 4.125C22.4453 4.125 21.625 3.30469 21.625 2.25C21.625 1.25391 22.4453 0.375 23.5 0.375H32.875C33.8711 0.375 34.75 1.25391 34.75 2.25V11.625C34.75 12.6797 33.8711 13.5 32.875 13.5C31.8203 13.5 31 12.6797 31 11.625V6.82031L21.0391 16.7227C20.3359 17.4844 19.1055 17.4844 18.4023 16.7227L12.1914 10.5703L4.16406 18.5977C3.46094 19.3594 2.23047 19.3594 1.52734 18.5977C0.765625 17.8945 0.765625 16.6641 1.52734 15.9609L10.9023 6.58594C11.6055 5.82422 12.8359 5.82422 13.5391 6.58594L19.75 12.7383L28.3047 4.125H23.5Z" fill="white"/>
</svg>
