<svg width="23" height="31" viewBox="0 0 23 31" fill="none" xmlns="http://www.w3.org/2000/svg">
<path d="M15 0.75V8.25H22.5L15 0.75ZM13.125 8.25V0.75H2.8125C1.23047 0.75 0 2.03906 0 3.5625V27.9375C0 29.5195 1.23047 30.75 2.8125 30.75H19.6875C21.2109 30.75 22.5 29.5195 22.5 27.9375V10.125H15C13.9453 10.125 13.125 9.30469 13.125 8.25ZM15.9375 25.125H6.5625C6.03516 25.125 5.625 24.7148 5.625 24.1875C5.625 23.7188 6.03516 23.25 6.5625 23.25H15.9375C16.4062 23.25 16.875 23.7188 16.875 24.1875C16.875 24.7148 16.4062 25.125 15.9375 25.125ZM15.9375 21.375H6.5625C6.03516 21.375 5.625 20.9648 5.625 20.4375C5.625 19.9688 6.03516 19.5 6.5625 19.5H15.9375C16.4062 19.5 16.875 19.9688 16.875 20.4375C16.875 20.9648 16.4062 21.375 15.9375 21.375ZM16.875 16.6875C16.875 17.2148 16.4062 17.625 15.9375 17.625H6.5625C6.03516 17.625 5.625 17.2148 5.625 16.6875C5.625 16.2188 6.03516 15.75 6.5625 15.75H15.9375C16.4062 15.75 16.875 16.2188 16.875 16.6875Z" fill="white"/>
</svg>
