<svg width="34" height="31" viewBox="0 0 34 31" fill="none" xmlns="http://www.w3.org/2000/svg">
<path d="M17.1094 20.8477C16.9336 21.0234 16.875 21.2578 16.875 21.4922V25.125H20.5078C20.7422 25.125 20.9766 25.0664 21.1523 24.8906L30.3516 15.6328L26.3672 11.6484L17.1094 20.8477ZM33.2812 10.5938L31.4062 8.71875C30.8203 8.13281 29.8828 8.13281 29.2969 8.71875L27.7148 10.3008L31.6992 14.2852L33.2812 12.7031C33.8672 12.1172 33.8672 11.1797 33.2812 10.5938ZM15 0.75V8.25H22.5L15 0.75ZM15 27C14.0039 27 13.1836 26.4727 12.7734 25.6523C12.5977 25.3008 12.3047 25.2422 12.1875 25.2422C12.0117 25.2422 11.7188 25.3008 11.6016 25.5938L11.1328 26.5312C10.957 26.8242 10.6055 27 10.3125 27H10.1953C9.84375 27 9.49219 26.7656 9.375 26.3555L8.4375 23.4258L7.79297 25.3008C7.44141 26.3555 6.50391 27 5.39062 27H4.6875C4.16016 27 3.75 26.5898 3.75 26.0625C3.75 25.5938 4.16016 25.125 4.6875 25.125H5.39062C5.68359 25.125 5.91797 24.9492 6.03516 24.7148L7.08984 21.4922C7.26562 20.9062 7.79297 20.5547 8.4375 20.5547C9.02344 20.5547 9.55078 20.9062 9.72656 21.4922L10.5469 23.9531C11.7188 23.0156 13.7109 23.3672 14.4141 24.7734C14.5312 25.0078 14.7656 25.125 15 25.125V21.082C15 20.6133 15.1758 20.1445 15.5273 19.793L22.5 12.8789V10.125H15C13.9453 10.125 13.125 9.30469 13.125 8.25V0.75H2.8125C1.23047 0.75 0 2.03906 0 3.5625V27.9375C0 29.5195 1.23047 30.75 2.8125 30.75H19.6875C21.2109 30.75 22.5 29.5195 22.5 27.9375V27H15Z" fill="white"/>
</svg>
