<svg width="110" height="39" viewBox="0 0 110 39" fill="none" xmlns="http://www.w3.org/2000/svg">
<path d="M40.9492 12.5837V1.02222H45.1307C46.5871 1.02222 47.7281 1.38297 48.5536 2.10449C48.9686 2.4693 49.2957 2.92309 49.5107 3.43199C49.7257 3.94089 49.8229 4.49175 49.795 5.04347V5.29621C49.8207 5.84719 49.7225 6.39691 49.5077 6.90496C49.2928 7.413 48.9668 7.86645 48.5536 8.23196C47.726 8.94483 46.585 9.30126 45.1307 9.30126H43.5099V12.5837H40.9492ZM45.27 3.25156H43.5099V7.06867H45.2538C45.5128 7.08296 45.7719 7.04436 46.0155 6.95523C46.259 6.86609 46.4818 6.72829 46.6703 6.55022C46.8457 6.36719 46.9821 6.15047 47.0712 5.9132C47.1604 5.67593 47.2004 5.42303 47.189 5.16984C47.2014 4.91361 47.1619 4.65751 47.0727 4.41694C46.9836 4.17638 46.8467 3.95633 46.6703 3.77002C46.4814 3.59258 46.2585 3.45518 46.0151 3.36608C45.7717 3.27698 45.5127 3.23803 45.2538 3.25156H45.27Z" fill="#113252"/>
<path d="M51.416 12.5837V1.02222H55.9248C57.3597 1.02222 58.4964 1.34625 59.3348 1.99432C60.1732 2.64238 60.5925 3.60044 60.5925 4.86849V5.118C60.6189 5.8633 60.4152 6.59866 60.009 7.22421C59.6167 7.7908 59.0651 8.22833 58.424 8.48146L61.3704 12.5837H58.3851L55.86 8.90594H53.9897V12.5837H51.416ZM56.1291 3.2062H53.9929V6.88073H56.1291C56.3741 6.89192 56.6188 6.85316 56.8484 6.76682C57.078 6.68047 57.2876 6.54835 57.4645 6.37849C57.6393 6.20439 57.7757 5.99569 57.865 5.76578C57.9543 5.53588 57.9945 5.28984 57.9831 5.04347C57.9937 4.79962 57.953 4.55627 57.8636 4.32912C57.7743 4.10196 57.6383 3.89605 57.4645 3.72465C57.2904 3.54996 57.0816 3.41359 56.8516 3.3243C56.6216 3.23502 56.3755 3.19479 56.1291 3.2062Z" fill="#113252"/>
<path d="M68.2549 12.8819C67.3204 12.9027 66.3924 12.7203 65.5354 12.3473C64.8087 12.0097 64.1615 11.5228 63.6359 10.9183C63.1483 10.3519 62.7653 9.7035 62.5046 9.00323C62.2706 8.35785 62.1478 7.67744 62.1416 6.99098V6.64427C62.1434 5.92673 62.2706 5.21502 62.5176 4.54129C62.7841 3.84547 63.1789 3.20579 63.6813 2.65542C64.214 2.06577 64.8688 1.59915 65.6002 1.288C66.4381 0.928423 67.3432 0.75167 68.2549 0.769543C69.1666 0.751968 70.0716 0.928709 70.9096 1.288C71.6404 1.60015 72.295 2.06662 72.8285 2.65542C73.33 3.20592 73.7236 3.84561 73.989 4.54129C74.2472 5.21242 74.3802 5.9252 74.3812 6.64427V6.99098C74.375 7.6786 74.2477 8.35976 74.0052 9.00323C73.7432 9.70289 73.3603 10.3511 72.8739 10.9183C72.3442 11.5253 71.6912 12.0124 70.9583 12.3473C70.1072 12.7213 69.1843 12.9039 68.2549 12.8819ZM68.2549 10.4776C68.9117 10.4949 69.56 10.3264 70.1252 9.99153C70.65 9.67641 71.0748 9.21916 71.3505 8.67271C71.636 8.10272 71.7816 7.4729 71.7751 6.83545C71.7877 6.17992 71.6361 5.53165 71.3343 4.94957C71.0636 4.41075 70.644 3.9609 70.1252 3.65344C69.5571 3.32693 68.91 3.16324 68.2549 3.18035C67.5998 3.16324 66.9527 3.32693 66.3846 3.65344C65.8651 3.96003 65.4453 4.41012 65.1756 4.94957C64.8821 5.53411 64.7363 6.18159 64.7509 6.83545C64.7429 7.47306 64.8886 8.10323 65.1756 8.67271C65.4468 9.21702 65.8658 9.67405 66.3846 9.99153C66.9498 10.3264 67.5981 10.4949 68.2549 10.4776Z" fill="#113252"/>
<path d="M76.3359 12.5837V1.02222H80.5303C81.9868 1.02222 83.1289 1.38297 83.9565 2.10449C84.3709 2.46975 84.6977 2.92361 84.9126 3.4324C85.1275 3.94119 85.2251 4.49184 85.198 5.04347V5.29621C85.2229 5.8471 85.1244 6.39661 84.9096 6.90455C84.6948 7.41248 84.3692 7.86601 83.9565 8.23196C83.131 8.94483 81.989 9.30126 80.5303 9.30126H78.9096V12.5837H76.3359ZM80.6568 3.25156H78.9129V7.06867H80.6568C80.9152 7.0829 81.1739 7.04426 81.4169 6.95511C81.6599 6.86597 81.8821 6.7282 82.07 6.55022C82.246 6.36763 82.3828 6.15098 82.472 5.9136C82.5612 5.67622 82.6009 5.42312 82.5886 5.16984C82.6019 4.91353 82.5627 4.65722 82.4735 4.41655C82.3843 4.17587 82.247 3.95589 82.07 3.77002C81.8817 3.59267 81.6594 3.4553 81.4165 3.3662C81.1736 3.27709 80.9151 3.2381 80.6568 3.25156Z" fill="#113252"/>
<path d="M86.8154 12.5835V1.11597H93.9174V3.25134H89.3308V5.68808H93.6678V7.82345H89.3308V10.4481H94.0276V12.5835H86.8154Z" fill="#113252"/>
<path d="M96.1445 12.5835V1.11597H98.7377V10.3218H103.217V12.59L96.1445 12.5835Z" fill="#113252"/>
<path d="M45.1988 28.2411C44.2427 28.2673 43.2917 28.0918 42.408 27.7259C41.7102 27.4268 41.1153 26.93 40.6965 26.2969C40.3144 25.6677 40.1188 24.9429 40.1325 24.2069H42.7743C42.776 24.4399 42.8272 24.6698 42.9244 24.8815C43.0216 25.0932 43.1627 25.2818 43.3383 25.435C43.7272 25.7785 44.3474 25.9502 45.1988 25.9502C45.8059 25.9891 46.41 25.8373 46.9265 25.516C47.1122 25.3889 47.2637 25.2181 47.3678 25.0186C47.4718 24.8191 47.5251 24.5971 47.523 24.3722C47.5277 24.1898 47.4844 24.0093 47.3974 23.8489C47.3103 23.6885 47.1826 23.5538 47.027 23.4584C46.5326 23.1764 45.9754 23.0227 45.4063 23.0112L44.4922 22.927C43.4314 22.8872 42.4136 22.4976 41.5976 21.8188C41.2389 21.4886 40.9564 21.0841 40.77 20.6336C40.5836 20.1831 40.4977 19.6974 40.5182 19.2103C40.4995 18.5014 40.69 17.8026 41.066 17.2013C41.4528 16.6294 41.9948 16.1797 42.6284 15.9052C43.3718 15.5806 44.1772 15.4224 44.9882 15.4418C45.8293 15.4184 46.6645 15.5892 47.4289 15.9408C48.0801 16.2409 48.629 16.7254 49.0075 17.3342C49.3813 17.9556 49.5712 18.6701 49.5553 19.395H46.8973C46.8986 19.1787 46.8565 18.9643 46.7736 18.7645C46.6906 18.5647 46.5685 18.3836 46.4144 18.2317C46.2238 18.055 45.9987 17.9194 45.7533 17.8335C45.5079 17.7477 45.2474 17.7133 44.9882 17.7327C44.7424 17.7133 44.4953 17.7429 44.261 17.8196C44.0268 17.8964 43.8101 18.0188 43.6235 18.1799C43.481 18.3108 43.3676 18.4702 43.2906 18.6477C43.2135 18.8252 43.1746 19.0168 43.1762 19.2103C43.1732 19.5434 43.2986 19.8648 43.5263 20.1079C43.8623 20.3998 44.2934 20.5588 44.7386 20.5551L45.6689 20.6393C46.4763 20.698 47.2678 20.8942 48.0092 21.2193C48.6396 21.4829 49.1857 21.9144 49.5877 22.4669C49.9857 23.022 50.1896 23.6928 50.1679 24.3754C50.1821 25.1032 49.9679 25.817 49.5553 26.4168C49.1245 27.0188 48.5307 27.4853 47.8439 27.7616C47.0039 28.0993 46.1039 28.2624 45.1988 28.2411Z" fill="#113252"/>
<path d="M52.4893 27.9235V15.8047H56.2428L59.0175 22.6094H59.3416L62.0839 15.8047H65.9087V27.9235H63.2184V18.5784L60.3951 25.4706H57.8019L54.9949 18.6465V27.9268L52.4893 27.9235Z" fill="#113252"/>
<path d="M67.8994 27.9235L71.9026 15.8047H76.3044L80.4567 27.9235H77.6334L76.661 24.9197H71.5849L70.6125 27.9235H67.8994ZM72.3012 22.6612H75.9057L74.392 18.0276H73.7794L72.3012 22.6612Z" fill="#113252"/>
<path d="M82.4688 27.9236V15.7043H87.2336C88.7463 15.7043 89.9478 16.0478 90.8381 16.7348C91.7284 17.4217 92.1714 18.4338 92.1671 19.771V20.0367C92.1955 20.8239 91.9817 21.6009 91.5544 22.2628C91.1393 22.8627 90.5548 23.3252 89.8754 23.5913L92.9807 27.9236H89.8268L87.1688 24.0352H85.1915V27.9236H82.4688ZM87.4508 18.0115H85.1818V21.8999H87.4508C87.7097 21.9125 87.9684 21.8719 88.211 21.7805C88.4535 21.689 88.6747 21.5488 88.8608 21.3684C89.0459 21.1849 89.1905 20.9646 89.2854 20.7219C89.3803 20.4792 89.4234 20.2193 89.4119 19.9589C89.4221 19.7006 89.3784 19.443 89.2836 19.2026C89.1887 18.9621 89.0447 18.744 88.8608 18.5623C88.6768 18.3778 88.4565 18.2336 88.2137 18.1387C87.971 18.0439 87.7112 18.0006 87.4508 18.0115Z" fill="#113252"/>
<path d="M97.1167 27.9235V18.1766H93.71V15.8047H103.262V18.1766H99.8395V27.9235H97.1167Z" fill="#113252"/>
<path d="M12.5968 8.23838C12.6285 8.27979 12.6507 8.32767 12.6619 8.37862C12.6731 8.42957 12.673 8.48235 12.6616 8.53325C12.4825 9.30926 12.374 10.0999 12.3374 10.8955C12.3131 11.3477 12.3131 11.8009 12.3374 12.2532V12.2888C12.3481 12.3686 12.3313 12.4496 12.2896 12.5185C12.248 12.5874 12.1841 12.64 12.1084 12.6675C12.0328 12.6951 11.95 12.6961 11.8737 12.6702C11.7975 12.6444 11.7324 12.5933 11.6892 12.5253L5.44943 4.3597C5.41611 4.31665 5.37337 4.2818 5.32449 4.25782C5.27561 4.23385 5.22188 4.22138 5.16743 4.22138C5.11298 4.22138 5.05926 4.23385 5.01038 4.25782C4.9615 4.2818 4.91874 4.31665 4.88542 4.3597C4.06719 5.42259 3.51398 6.66502 3.2716 7.98415C3.02922 9.30327 3.10464 10.6611 3.49162 11.9453C3.64617 12.474 3.85472 12.9855 4.11397 13.4715C4.33275 13.8793 4.58311 14.2693 4.86273 14.638C5.23635 15.1251 5.66247 15.5695 6.13338 15.9633C7.02683 16.7174 8.06746 17.2774 9.18913 17.6076C10.3108 17.9379 11.4889 18.0312 12.6486 17.8816C13.0335 17.8396 13.4142 17.7648 13.7864 17.658C14.277 17.5293 14.7536 17.3524 15.2094 17.1299L15.2547 17.1137L15.4103 17.0359L15.4654 17.0067C15.7896 17.5543 16.1915 18.0793 16.561 18.6269C16.6421 18.7468 16.7263 18.8634 16.8041 18.9833C16.95 19.2037 17.0926 19.424 17.2223 19.6508L17.1477 19.693C16.6621 19.9624 16.1559 20.1932 15.634 20.3832C14.7614 20.7118 13.851 20.9295 12.9241 21.0312C12.2788 21.1076 11.6282 21.1293 10.9793 21.096C10.7427 21.096 10.506 21.0636 10.2727 21.0377C7.75238 20.7565 5.39462 19.6543 3.56292 17.9011C3.12979 17.4848 2.72888 17.0364 2.36361 16.5596C2.08251 16.192 1.8238 15.8079 1.58891 15.4092C1.27516 14.8688 1.00733 14.303 0.788266 13.7178C-0.0145178 11.6537 -0.209138 9.40293 0.227428 7.23174C0.663994 5.06055 1.71349 3.05978 3.25176 1.46609C3.65484 1.04907 4.08821 0.662417 4.54832 0.309285C4.88286 0.0612559 5.30218 -0.0439261 5.71422 0.0168268C6.12626 0.0775796 6.49734 0.299302 6.746 0.633319L12.5968 8.23838Z" fill="url(#paint0_linear_124_820)"/>
<path d="M109.771 33.4838L103.24 38.124C103.162 38.1787 103.07 38.211 102.975 38.2172C102.88 38.2234 102.785 38.2033 102.701 38.1591C102.617 38.1149 102.546 38.0483 102.497 37.9667C102.448 37.885 102.422 37.7915 102.423 37.6962V34.9128H102.459H101.548C99.1264 34.9452 37.5719 34.9744 30.1977 34.9873C29.4068 34.9873 28.8687 34.9873 28.4505 34.4365L22.6484 26.8444C22.6196 26.8046 22.599 26.7594 22.5879 26.7116C22.5768 26.6637 22.5753 26.6141 22.5836 26.5657C22.7093 25.9243 22.7873 25.2744 22.817 24.6215C22.8499 23.9981 22.8358 23.3731 22.7748 22.7518C22.778 22.7119 22.778 22.6718 22.7748 22.6319C22.7586 22.5505 22.7715 22.466 22.8114 22.3932C22.8513 22.3204 22.9156 22.2639 22.9929 22.2338C23.0703 22.2036 23.1558 22.2017 23.2345 22.2283C23.3131 22.2548 23.3799 22.3083 23.4231 22.3792L29.7763 30.6939C29.8096 30.7369 29.8524 30.7718 29.9012 30.7958C29.9501 30.8197 30.0038 30.8322 30.0583 30.8322C30.1128 30.8322 30.1665 30.8197 30.2153 30.7958C30.2642 30.7718 30.307 30.7369 30.3403 30.6939C31.1172 29.6838 31.6559 28.5114 31.9164 27.2642C32.1768 26.017 32.1521 24.727 31.8443 23.4906C31.692 22.8716 31.4657 22.2733 31.1701 21.7084C30.9413 21.2526 30.6711 20.8188 30.363 20.4123C30.0151 19.9629 29.6254 19.5474 29.1993 19.1713C28.3007 18.3879 27.2461 17.8041 26.1051 17.4583C24.9641 17.1126 23.7628 17.0128 22.5803 17.1655C22.1019 17.223 21.6298 17.325 21.1703 17.4701C20.8027 17.5766 20.4449 17.7143 20.1007 17.8816C20.0747 17.8816 20.0488 17.9043 20.0229 17.9205L19.9872 17.9432C19.9522 17.8698 19.9132 17.7985 19.8705 17.7293C19.6094 17.3054 19.3249 16.8965 19.018 16.5045L18.9694 16.4364C18.7684 16.1578 18.5707 15.8791 18.3892 15.5907C18.3584 15.5105 18.3579 15.4219 18.3877 15.3414C18.4175 15.2609 18.4757 15.194 18.5513 15.1532C18.7879 15.0301 19.031 14.907 19.2417 14.8292C20.2208 14.4239 21.2518 14.1578 22.3048 14.0386C22.9501 13.9621 23.6007 13.9404 24.2497 13.9738C24.483 13.9738 24.7197 14.0062 24.9563 14.0321C27.5278 14.3243 29.9274 15.4684 31.773 17.2821C32.1532 17.6595 32.5073 18.0623 32.833 18.4876C33.153 18.9052 33.4432 19.3448 33.7017 19.8031C34.0337 20.3863 34.3156 20.9966 34.5444 21.6274C35.0947 23.1649 35.3145 24.8011 35.1894 26.4292C35.0642 28.0574 34.5971 29.6408 33.8183 31.0762C45.7273 31.0762 78.4332 31.0762 80.3554 31.0762L102.439 31.0309V28.4192C102.437 28.3231 102.461 28.2283 102.509 28.1452C102.558 28.0622 102.628 27.9941 102.713 27.9488C102.797 27.9034 102.893 27.8825 102.989 27.8883C103.085 27.8941 103.177 27.9264 103.256 27.9817L109.787 32.6154C109.855 32.6666 109.909 32.733 109.946 32.8091C109.983 32.8853 110.001 32.9691 110 33.0537C109.998 33.1383 109.977 33.2214 109.937 33.2961C109.897 33.3708 109.841 33.4352 109.771 33.4838Z" fill="url(#paint1_linear_124_820)"/>
<path opacity="0.5" d="M18.9337 16.4268C18.8495 16.3167 18.7684 16.2032 18.6874 16.1028C18.6064 16.0023 18.4799 15.8079 18.3859 15.6556C18.3707 15.6365 18.3597 15.6144 18.3535 15.5908C18.535 15.8695 18.7328 16.1482 18.9337 16.4268Z" fill="white"/>
<path d="M0.831359 28.3879L8.45141 22.5772C8.49265 22.5453 8.54062 22.5232 8.59171 22.5126C8.6428 22.502 8.69565 22.5031 8.74624 22.5159C9.36774 22.6593 9.99908 22.7564 10.635 22.8064C11.2514 22.8586 11.8707 22.8672 12.4882 22.8322C12.5657 22.8274 12.6426 22.8476 12.7076 22.8899C12.7725 22.9322 12.822 22.9943 12.8486 23.067C12.8752 23.1396 12.8775 23.2189 12.8552 23.2929C12.8329 23.367 12.7871 23.4318 12.7247 23.4779L4.57659 29.6792C4.53286 29.713 4.49747 29.7563 4.47312 29.8058C4.44877 29.8554 4.43611 29.9098 4.43611 29.9649C4.43611 30.02 4.44877 30.0745 4.47312 30.124C4.49747 30.1735 4.53286 30.2168 4.57659 30.2506C5.58617 31.0225 6.7575 31.5575 8.00336 31.8157C9.24921 32.0739 10.5375 32.0487 11.7722 31.742C12.393 31.5922 12.9942 31.3712 13.5638 31.0835C14.0193 30.8539 14.4531 30.5838 14.8598 30.2764C15.3098 29.9308 15.7253 29.5426 16.1006 29.1175C16.9464 28.1552 17.5564 27.0103 17.8825 25.7731C18.2054 24.5518 18.2431 23.2729 17.9927 22.0348C17.8654 21.4145 17.6631 20.8118 17.3901 20.24C17.0082 19.5199 16.5614 18.836 16.0553 18.1965C15.0763 16.8538 14.4121 15.3094 14.1114 13.677C14.0628 13.4059 14.0207 13.1315 13.9915 12.8571C13.9175 12.2142 13.8991 11.5662 13.9364 10.9202C13.9364 10.6264 13.9818 10.3294 14.0207 10.0356C14.3586 7.50137 15.5339 5.15139 17.3609 3.35649C17.7091 3.00922 18.0804 2.68567 18.4722 2.38803C18.9297 2.03861 19.4127 1.72354 19.9171 1.4454C20.5087 1.12091 21.1278 0.848693 21.7671 0.631888C23.811 -0.0606509 26.0084 -0.171017 28.1119 0.313187C30.2153 0.797391 32.1414 1.85694 33.6734 3.37263C34.045 3.74304 34.3913 4.13777 34.7101 4.55416L34.8203 4.6962C35.0653 5.03157 35.1686 5.44927 35.1081 5.85968C35.0475 6.27009 34.8279 6.64049 34.4963 6.89137L27.0026 12.5924C26.9612 12.624 26.9133 12.6461 26.8624 12.6573C26.8115 12.6684 26.7587 12.6683 26.7078 12.6569C26.0861 12.514 25.4548 12.4159 24.819 12.3632C24.2 12.3182 23.5785 12.3171 22.9593 12.3599C22.8819 12.3648 22.8049 12.3445 22.74 12.3022C22.675 12.2599 22.6256 12.1978 22.5989 12.1252C22.5723 12.0525 22.57 11.9733 22.5924 11.8992C22.6147 11.8252 22.6604 11.7603 22.7228 11.7143L30.7738 5.58072C30.8169 5.54721 30.8517 5.50435 30.8757 5.45541C30.8997 5.40646 30.9121 5.35272 30.9121 5.29825C30.9121 5.24379 30.8997 5.19005 30.8757 5.1411C30.8517 5.09216 30.8169 5.0493 30.7738 5.01579C29.786 4.22569 28.6325 3.66717 27.3986 3.38161C26.1648 3.09605 24.8823 3.09079 23.6462 3.36618C23.0207 3.51167 22.4141 3.7283 21.8384 4.01182C21.3239 4.26116 20.8356 4.56068 20.3804 4.90602C19.9844 5.20546 19.6168 5.54046 19.2821 5.90677C18.4729 6.79081 17.8622 7.83662 17.4906 8.97445C17.1191 10.1123 16.9954 11.316 17.1276 12.5052C17.1781 12.9831 17.2724 13.4553 17.4095 13.9159C17.5719 14.47 17.8061 15.0007 18.1061 15.4945C18.2357 15.7205 18.3782 15.94 18.524 16.1595L18.767 16.5146C19.1363 17.044 19.5219 17.567 19.8621 18.1287C20.1527 18.5788 20.3949 19.0581 20.5845 19.5588C20.9162 20.4491 21.1339 21.3776 21.2325 22.3222C21.2838 22.7852 21.3076 23.2509 21.3038 23.7167C21.3 24.1105 21.2752 24.5039 21.2293 24.895C20.9393 27.4707 19.7865 29.8738 17.957 31.7162C17.5805 32.0956 17.1777 32.4483 16.7518 32.7718C16.3335 33.0894 15.894 33.3785 15.4365 33.637C14.8534 33.9676 14.2432 34.2484 13.6124 34.4763C11.5779 35.1956 9.38226 35.3349 7.27256 34.8786C5.16286 34.4224 3.22276 33.3887 1.67047 31.8938C1.25352 31.4923 0.866927 31.0607 0.51385 30.6025C0.387519 30.4368 0.295458 30.2477 0.243003 30.0463C0.19055 29.8449 0.178744 29.6351 0.208281 29.4291C0.237815 29.2231 0.308093 29.025 0.415053 28.8463C0.52201 28.6676 0.663516 28.5118 0.831359 28.3879Z" fill="url(#paint2_linear_124_820)"/>
<defs>
<linearGradient id="paint0_linear_124_820" x1="-2.88077" y1="3.55295" x2="58.6083" y2="-39.401" gradientUnits="userSpaceOnUse">
<stop stop-color="#FD7B23"/>
<stop offset="0.0577814" stop-color="#FD8825"/>
<stop offset="0.0886385" stop-color="#FD9526"/>
<stop offset="0.10972" stop-color="#FDA128"/>
<stop offset="0.146439" stop-color="#FDA929"/>
<stop offset="0.180161" stop-color="#FEB62B"/>
<stop offset="0.2073" stop-color="#FEC22D"/>
<stop offset="0.241827" stop-color="#FECF2F"/>
<stop offset="0.286433" stop-color="#FEDC32"/>
<stop offset="0.40263" stop-color="#FEE834"/>
<stop offset="0.50345" stop-color="#FEC52E"/>
<stop offset="0.6109" stop-color="#FEB62B"/>
<stop offset="0.673099" stop-color="#FDA128"/>
<stop offset="0.752173" stop-color="#FD9526"/>
<stop offset="0.875" stop-color="#FD8825"/>
<stop offset="0.957246" stop-color="#FD7B23"/>
</linearGradient>
<linearGradient id="paint1_linear_124_820" x1="-2.88077" y1="3.55295" x2="58.6083" y2="-39.401" gradientUnits="userSpaceOnUse">
<stop stop-color="#FD7B23"/>
<stop offset="0.0577814" stop-color="#FD8825"/>
<stop offset="0.0886385" stop-color="#FD9526"/>
<stop offset="0.10972" stop-color="#FDA128"/>
<stop offset="0.146439" stop-color="#FDA929"/>
<stop offset="0.180161" stop-color="#FEB62B"/>
<stop offset="0.2073" stop-color="#FEC22D"/>
<stop offset="0.241827" stop-color="#FECF2F"/>
<stop offset="0.286433" stop-color="#FEDC32"/>
<stop offset="0.40263" stop-color="#FEE834"/>
<stop offset="0.50345" stop-color="#FEC52E"/>
<stop offset="0.6109" stop-color="#FEB62B"/>
<stop offset="0.673099" stop-color="#FDA128"/>
<stop offset="0.752173" stop-color="#FD9526"/>
<stop offset="0.875" stop-color="#FD8825"/>
<stop offset="0.957246" stop-color="#FD7B23"/>
</linearGradient>
<linearGradient id="paint2_linear_124_820" x1="35.0841" y1="5.45132" x2="-50.1777" y2="71.9999" gradientUnits="userSpaceOnUse">
<stop stop-color="#013052"/>
<stop offset="0.125" stop-color="#003D72"/>
<stop offset="0.239583" stop-color="#1178B4"/>
<stop offset="0.364583" stop-color="#1797C5"/>
<stop offset="0.507808" stop-color="#1DB5D6"/>
<stop offset="0.612558" stop-color="#50CAE3"/>
<stop offset="0.707225" stop-color="#93E0EE"/>
<stop offset="0.801332" stop-color="#AFE8F3"/>
<stop offset="1" stop-color="#CBF0F8"/>
</linearGradient>
</defs>
</svg>
