<svg width="283" height="518" viewBox="0 0 283 518" fill="none" xmlns="http://www.w3.org/2000/svg">
<path d="M230.98 195.615C230.98 178.452 230.87 161.289 230.649 144.126L229.491 32.2739C229.433 24.4609 226.287 16.9878 220.738 11.4838C215.19 5.9797 207.69 2.89118 199.872 2.89139V2.89139C189.839 2.96627 179.826 3.81401 169.923 5.42717C132.19 11.5629 97.003 28.3673 68.5216 53.8542C40.0402 79.3411 19.4547 112.445 9.19824 149.253C6.31286 159.614 4.30175 170.199 3.18617 180.896C2.27462 188.837 1.88774 196.829 2.02794 204.821C2.10126 215.183 2.98644 225.523 4.6754 235.747C11.8859 278.905 32.9721 318.54 64.7402 348.647C67.7186 351.348 70.8074 354.159 73.8961 356.64C76.9848 359.121 80.956 362.153 84.9273 365.185C87.299 366.894 89.6706 368.492 92.0423 370.036C94.414 371.579 95.9033 372.572 97.8889 373.729C103.798 377.351 109.892 380.664 116.146 383.652C120.006 385.471 124.198 387.291 128.887 389.165C133.575 391.039 137.27 392.252 142.4 393.851L154.093 397.103C157.568 397.93 160.987 398.702 164.628 399.418L170.143 400.411C171.743 400.411 173.287 400.907 174.887 401.072C183.151 402.191 191.477 402.798 199.817 402.891V402.891C207.592 402.805 215.022 399.672 220.509 394.167C225.996 388.662 229.103 381.224 229.16 373.454L230.153 277.037C230.153 259.231 230.153 241.204 230.153 222.461C231.035 213.531 231.035 204.655 230.98 195.615Z" stroke="url(#paint0_linear_220_1370)" stroke-width="4" stroke-miterlimit="10"/>
<path d="M253.014 384.841C253.014 396.512 253.089 408.182 253.239 419.853L254.028 495.913C254.068 501.226 256.211 506.307 259.991 510.05C263.77 513.793 268.88 515.893 274.205 515.893V515.893C281.04 515.842 287.861 515.265 294.607 514.168C320.312 509.996 344.282 498.569 363.684 481.238C383.086 463.907 397.109 441.396 404.096 416.367C406.062 409.321 407.432 402.124 408.192 394.85C408.813 389.45 409.076 384.015 408.981 378.581C408.931 371.535 408.328 364.503 407.177 357.551C402.265 328.203 387.901 301.252 366.26 280.779C364.231 278.942 362.127 277.031 360.023 275.344C357.919 273.657 355.213 271.595 352.508 269.533C350.892 268.371 349.277 267.284 347.661 266.235C346.045 265.185 345.031 264.51 343.678 263.723C339.653 261.26 335.502 259.008 331.241 256.975C328.611 255.738 325.756 254.501 322.562 253.227C319.368 251.952 316.851 251.128 313.356 250.041L305.391 247.829C303.024 247.267 300.694 246.742 298.214 246.254L294.457 245.58C293.367 245.58 292.315 245.242 291.226 245.13C285.596 244.369 279.924 243.956 274.243 243.893V243.893C268.946 243.952 263.885 246.082 260.147 249.825C256.409 253.569 254.293 258.626 254.253 263.91L253.577 329.474C253.577 341.582 253.577 353.84 253.577 366.585C252.976 372.658 252.976 378.693 253.014 384.841Z" stroke="#50CAE3" stroke-width="4" stroke-miterlimit="10"/>
<defs>
<linearGradient id="paint0_linear_220_1370" x1="14.9435" y1="2.89146" x2="251.127" y2="13.4194" gradientUnits="userSpaceOnUse">
<stop stop-color="#FD7B23"/>
<stop offset="1" stop-color="#FEB62B"/>
</linearGradient>
</defs>
</svg>
