<svg width="369" height="512" viewBox="0 0 369 512" fill="none" xmlns="http://www.w3.org/2000/svg">
<path d="M187.98 193.95C187.98 176.929 187.869 159.909 187.646 142.888L186.478 31.9621C186.419 24.2139 183.245 16.8027 177.649 11.3442C172.052 5.88576 164.486 2.82282 156.6 2.82303V2.82303C146.479 2.89729 136.379 3.73801 126.389 5.33781C88.3267 11.4227 52.8328 28.0879 24.1026 53.3637C-4.6276 78.6394 -25.3929 111.469 -35.7389 147.972C-38.6495 158.247 -40.6781 168.745 -41.8035 179.353C-42.723 187.228 -43.1132 195.154 -42.9718 203.08C-42.8979 213.356 -42.0049 223.61 -40.3012 233.75C-33.0277 276.55 -11.7574 315.856 20.2881 345.714C23.2926 348.393 26.4083 351.181 29.524 353.641C32.6397 356.101 36.6456 359.108 40.6515 362.115C43.0439 363.81 45.4363 365.395 47.8287 366.926C50.2212 368.457 51.7234 369.441 53.7264 370.589C59.687 374.181 65.834 377.466 72.1424 380.43C76.0371 382.234 80.2655 384.038 84.9947 385.897C89.7239 387.755 93.4516 388.958 98.6259 390.544L110.421 393.769C113.926 394.589 117.376 395.355 121.048 396.065L126.612 397.049C128.225 397.049 129.783 397.541 131.396 397.705C139.733 398.815 148.132 399.417 156.545 399.51V399.51C164.387 399.424 171.882 396.317 177.417 390.858C182.953 385.398 186.086 378.022 186.144 370.316L187.145 274.698C187.145 257.039 187.145 239.162 187.145 220.574C188.036 211.718 188.036 202.916 187.98 193.95Z" stroke="url(#paint0_linear_228_1372)" stroke-width="4" stroke-miterlimit="10"/>
<path d="M210.014 380.377C210.014 391.85 210.089 403.323 210.241 414.796L211.035 489.569C211.075 494.791 213.232 499.787 217.035 503.467C220.839 507.146 225.981 509.211 231.341 509.21V509.21C238.22 509.16 245.085 508.594 251.874 507.515C277.743 503.414 301.867 492.18 321.394 475.142C340.92 458.105 355.033 435.975 362.065 411.369C364.043 404.443 365.422 397.367 366.187 390.216C366.812 384.908 367.077 379.565 366.981 374.222C366.931 367.296 366.324 360.383 365.166 353.549C360.222 324.698 345.766 298.203 323.986 278.076C321.944 276.271 319.826 274.391 317.709 272.733C315.591 271.074 312.869 269.048 310.146 267.021C308.52 265.878 306.894 264.81 305.268 263.778C303.642 262.746 302.621 262.083 301.26 261.309C297.208 258.887 293.031 256.673 288.743 254.675C286.096 253.459 283.222 252.243 280.008 250.99C276.794 249.737 274.26 248.927 270.743 247.858L262.727 245.684C260.344 245.131 258 244.615 255.504 244.136L251.723 243.472C250.626 243.472 249.567 243.141 248.471 243.03C242.805 242.283 237.096 241.876 231.379 241.814V241.814C226.049 241.872 220.955 243.966 217.193 247.646C213.431 251.326 211.301 256.298 211.262 261.493L210.581 325.947C210.581 337.85 210.581 349.9 210.581 362.43C209.976 368.4 209.976 374.333 210.014 380.377Z" stroke="#50CAE3" stroke-width="4" stroke-miterlimit="10"/>
<defs>
<linearGradient id="paint0_linear_228_1372" x1="-29.9435" y1="2.8231" x2="208.287" y2="13.6245" gradientUnits="userSpaceOnUse">
<stop stop-color="#FD7B23"/>
<stop offset="1" stop-color="#FEB62B"/>
</linearGradient>
</defs>
</svg>
