<svg width="165" height="187" viewBox="0 0 165 187" fill="none" xmlns="http://www.w3.org/2000/svg">
<path d="M92.9921 78.1257C92.9921 71.3464 92.9483 64.5671 92.8606 57.7878L92.4004 13.6061C92.3772 10.52 91.127 7.5681 88.9222 5.394C86.7174 3.2199 83.7369 1.99993 80.6305 2.00001V2.00001C76.6433 2.02959 72.6644 2.36445 68.7291 3.00165C53.7348 5.42525 39.7523 12.063 28.4343 22.1303C17.1164 32.1976 8.93615 45.2736 4.86044 59.8128C3.71384 63.9054 2.91467 68.0864 2.47136 72.3118C2.10913 75.4484 1.95539 78.6054 2.0111 81.7621C2.04024 85.8551 2.39199 89.9395 3.06315 93.9779C5.92848 111.025 14.3077 126.681 26.9317 138.573C28.1153 139.64 29.3427 140.751 30.5701 141.731C31.7975 142.711 33.3755 143.908 34.9536 145.106C35.8961 145.781 36.8385 146.412 37.781 147.022C38.7235 147.632 39.3153 148.024 40.1043 148.481C42.4525 149.912 44.874 151.22 47.3591 152.401C48.8934 153.119 50.5591 153.838 52.4222 154.578C54.2852 155.318 55.7537 155.797 57.792 156.429L62.4386 157.714C63.8194 158.04 65.1783 158.345 66.6249 158.628L68.8167 159.02C69.4523 159.02 70.066 159.216 70.7016 159.281C73.9859 159.723 77.2945 159.963 80.6085 160V160C83.6979 159.966 86.6505 158.728 88.831 156.554C91.0116 154.379 92.246 151.442 92.2688 148.372L92.6634 110.288C92.6634 103.254 92.6634 96.1337 92.6634 88.7301C93.0141 85.2026 93.014 81.6968 92.9921 78.1257Z" stroke="url(#paint0_linear_220_1371)" stroke-width="4" stroke-miterlimit="10"/>
<path d="M101.005 133.447C101.005 138.038 101.035 142.629 101.095 147.22L101.409 177.14C101.424 179.23 102.276 181.229 103.778 182.702C105.28 184.174 107.311 185 109.428 185V185C112.144 184.98 114.855 184.753 117.536 184.322C127.752 182.68 137.279 178.185 144.99 171.367C152.701 164.55 158.274 155.694 161.051 145.848C161.832 143.077 162.377 140.245 162.679 137.384C162.926 135.26 163.03 133.122 162.992 130.984C162.973 128.212 162.733 125.446 162.276 122.711C160.323 111.166 154.615 100.564 146.014 92.5105C145.207 91.7879 144.371 91.0358 143.535 90.3722C142.698 89.7086 141.623 88.8976 140.548 88.0865C139.906 87.6294 139.264 87.2018 138.622 86.7889C137.98 86.376 137.576 86.1105 137.039 85.8009C135.439 84.8319 133.789 83.9459 132.096 83.1465C131.051 82.6599 129.916 82.1732 128.646 81.6718C127.377 81.1705 126.377 80.846 124.988 80.4184L121.822 79.5484C120.881 79.3272 119.955 79.1207 118.97 78.929L117.477 78.6636C117.043 78.6636 116.625 78.5309 116.192 78.4866C113.955 78.1874 111.7 78.0249 109.443 78V78C107.338 78.0231 105.326 78.8611 103.84 80.3337C102.355 81.8064 101.514 83.7959 101.498 85.8746L101.229 111.666C101.229 116.429 101.229 121.251 101.229 126.265C100.99 128.654 100.99 131.028 101.005 133.447Z" stroke="#50CAE3" stroke-width="4" stroke-miterlimit="10"/>
<defs>
<linearGradient id="paint0_linear_220_1371" x1="7.14348" y1="2.00004" x2="100.996" y2="6.20874" gradientUnits="userSpaceOnUse">
<stop stop-color="#FD7B23"/>
<stop offset="1" stop-color="#FEB62B"/>
</linearGradient>
</defs>
</svg>
