<svg width="117" height="41" viewBox="0 0 117 41" fill="none" xmlns="http://www.w3.org/2000/svg">
<path d="M43.5557 13.3844V1.08716H48.0032C49.5524 1.08716 50.7659 1.47087 51.644 2.2383C52.0853 2.62633 52.4333 3.10899 52.662 3.65028C52.8906 4.19156 52.994 4.77748 52.9644 5.36431V5.63313C52.9917 6.21917 52.8873 6.80388 52.6588 7.34425C52.4302 7.88463 52.0835 8.36694 51.644 8.7557C50.7636 9.51394 49.5501 9.89305 48.0032 9.89305H46.2793V13.3844H43.5557ZM48.1514 3.45837H46.2793V7.51839H48.1342C48.4096 7.53359 48.6853 7.49253 48.9443 7.39772C49.2033 7.30291 49.4404 7.15634 49.6408 6.96695C49.8274 6.77226 49.9724 6.54175 50.0673 6.28938C50.1621 6.03701 50.2047 5.76803 50.1925 5.49872C50.2057 5.22618 50.1637 4.95378 50.0689 4.69791C49.9741 4.44204 49.8285 4.20798 49.6408 4.00982C49.4399 3.82109 49.2028 3.67494 48.9439 3.58017C48.685 3.48541 48.4096 3.44398 48.1342 3.45837H48.1514Z" fill="white"/>
<path d="M54.6885 13.3844V1.08716H59.4842C61.0104 1.08716 62.2194 1.43181 63.1112 2.12112C64.003 2.81043 64.4489 3.82945 64.4489 5.17819V5.44358C64.477 6.23631 64.2603 7.01847 63.8283 7.68383C63.411 8.28647 62.8243 8.75184 62.1424 9.02108L65.2763 13.3844H62.101L59.4153 9.47258H57.4259V13.3844H54.6885ZM59.7014 3.41012H57.4294V7.31849H59.7014C59.9621 7.33038 60.2224 7.28916 60.4666 7.19732C60.7108 7.10549 60.9337 6.96496 61.1219 6.78428C61.3078 6.59911 61.4529 6.37712 61.5479 6.13259C61.6429 5.88805 61.6856 5.62635 61.6735 5.36431C61.6847 5.10494 61.6414 4.8461 61.5464 4.6045C61.4514 4.36289 61.3068 4.14387 61.1219 3.96157C60.9366 3.77575 60.7146 3.63071 60.47 3.53574C60.2253 3.44078 59.9636 3.39799 59.7014 3.41012Z" fill="white"/>
<path d="M72.598 13.7016C71.604 13.7237 70.6171 13.5297 69.7054 13.1329C68.9326 12.7739 68.2442 12.256 67.6851 11.613C67.1665 11.0106 66.7591 10.3209 66.4818 9.5761C66.2329 8.88965 66.1023 8.16594 66.0957 7.4358V7.06702C66.0976 6.30382 66.2329 5.54682 66.4956 4.83022C66.7791 4.09011 67.199 3.40973 67.7334 2.82434C68.3 2.19716 68.9965 1.70085 69.7744 1.3699C70.6657 0.98744 71.6283 0.799439 72.598 0.818449C73.5678 0.799757 74.5303 0.987744 75.4217 1.3699C76.199 1.70191 76.8953 2.19807 77.4627 2.82434C77.9961 3.40987 78.4148 4.09027 78.697 4.83022C78.9717 5.54405 79.1131 6.30219 79.1142 7.06702V7.4358C79.1076 8.16718 78.9722 8.89167 78.7142 9.5761C78.4356 10.3203 78.0283 11.0097 77.511 11.613C76.9476 12.2586 76.253 12.7768 75.4734 13.1329C74.5682 13.5308 73.5866 13.725 72.598 13.7016ZM72.598 11.1443C73.2966 11.1627 73.9862 10.9835 74.5874 10.6273C75.1456 10.2921 75.5974 9.80577 75.8906 9.22455C76.1943 8.61828 76.3491 7.94838 76.3422 7.27036C76.3556 6.57312 76.1944 5.8836 75.8733 5.26448C75.5855 4.69137 75.1392 4.21289 74.5874 3.88587C73.9831 3.53858 73.2948 3.36447 72.598 3.38267C71.9013 3.36447 71.213 3.53858 70.6087 3.88587C70.0562 4.21197 69.6096 4.6907 69.3227 5.26448C69.0106 5.88622 68.8555 6.5749 68.8711 7.27036C68.8626 7.94855 69.0175 8.61883 69.3227 9.22455C69.6112 9.80349 70.0569 10.2896 70.6087 10.6273C71.2099 10.9835 71.8995 11.1627 72.598 11.1443Z" fill="white"/>
<path d="M81.1943 13.3844V1.08716H85.6556C87.2048 1.08716 88.4195 1.47087 89.2999 2.2383C89.7406 2.6268 90.0882 3.10955 90.3168 3.65072C90.5454 4.19189 90.6492 4.77757 90.6203 5.36431V5.63313C90.6469 6.21908 90.5421 6.80356 90.3136 7.34382C90.0852 7.88408 89.7388 8.36647 89.2999 8.7557C88.4218 9.51394 87.2071 9.89305 85.6556 9.89305H83.9318V13.3844H81.1943ZM85.7901 3.45837H83.9353V7.51839H85.7901C86.065 7.53352 86.3401 7.49242 86.5986 7.3976C86.8571 7.30278 87.0934 7.15625 87.2933 6.96695C87.4805 6.77273 87.626 6.5423 87.7209 6.28981C87.8157 6.03733 87.858 5.76811 87.8449 5.49872C87.859 5.2261 87.8173 4.95348 87.7225 4.69749C87.6276 4.4415 87.4816 4.20752 87.2933 4.00982C87.093 3.82119 86.8565 3.67508 86.5982 3.5803C86.3398 3.48553 86.0649 3.44405 85.7901 3.45837Z" fill="white"/>
<path d="M92.3398 13.3843V1.18701H99.8937V3.45828H95.0153V6.05007H99.6283V8.32134H95.0153V11.113H100.011V13.3843H92.3398Z" fill="white"/>
<path d="M102.264 13.3843V1.18701H105.022V10.9786H109.787V13.3912L102.264 13.3843Z" fill="white"/>
<path d="M48.075 30.0379C47.058 30.0658 46.0465 29.8791 45.1065 29.4899C44.3644 29.1718 43.7316 28.6434 43.2862 27.97C42.8797 27.3007 42.6717 26.5298 42.6863 25.747H45.4961C45.498 25.9948 45.5524 26.2393 45.6558 26.4645C45.7592 26.6897 45.9093 26.8903 46.096 27.0532C46.5098 27.4186 47.1694 27.6012 48.075 27.6012C48.7207 27.6426 49.3632 27.4811 49.9126 27.1394C50.1101 27.0042 50.2713 26.8225 50.3819 26.6104C50.4926 26.3982 50.5493 26.162 50.547 25.9228C50.5521 25.7288 50.506 25.5368 50.4134 25.3662C50.3208 25.1956 50.185 25.0524 50.0195 24.9509C49.4936 24.651 48.901 24.4875 48.2957 24.4752L47.3234 24.3856C46.1951 24.3433 45.1125 23.9289 44.2446 23.2069C43.863 22.8557 43.5626 22.4255 43.3644 21.9463C43.1661 21.4671 43.0747 20.9505 43.0965 20.4324C43.0766 19.6784 43.2792 18.9352 43.6792 18.2956C44.0906 17.6873 44.6671 17.209 45.341 16.917C46.1317 16.5717 46.9883 16.4035 47.8509 16.4241C48.7456 16.3993 49.634 16.5809 50.447 16.9549C51.1396 17.2741 51.7234 17.7894 52.126 18.4369C52.5236 19.0978 52.7256 19.8579 52.7087 20.6289H49.8816C49.8829 20.3988 49.8382 20.1708 49.7499 19.9583C49.6617 19.7458 49.5318 19.5531 49.3679 19.3916C49.1652 19.2036 48.9258 19.0594 48.6648 18.968C48.4038 18.8767 48.1267 18.8402 47.8509 18.8608C47.5895 18.8402 47.3267 18.8716 47.0775 18.9533C46.8284 19.0349 46.5979 19.1652 46.3994 19.3364C46.2479 19.4757 46.1272 19.6452 46.0453 19.834C45.9633 20.0228 45.9219 20.2267 45.9236 20.4324C45.9205 20.7867 46.0538 21.1285 46.296 21.3871C46.6534 21.6976 47.112 21.8667 47.5854 21.8628L48.5749 21.9524C49.4338 22.0148 50.2756 22.2234 51.0642 22.5693C51.7348 22.8497 52.3155 23.3087 52.7432 23.8962C53.1665 24.4867 53.3834 25.2001 53.3603 25.9262C53.3754 26.7003 53.1475 27.4596 52.7087 28.0975C52.2505 28.7378 51.6189 29.234 50.8883 29.5279C49.9949 29.8871 49.0377 30.0606 48.075 30.0379Z" fill="white"/>
<path d="M55.8291 29.7006V16.8105H59.8215L62.7728 24.0483H63.1175L66.0343 16.8105H70.1025V29.7006H67.241V19.7608L64.238 27.0916H61.4799L58.4942 19.8332V29.704L55.8291 29.7006Z" fill="white"/>
<path d="M72.2197 29.7006L76.4776 16.8105H81.1596L85.5761 29.7006H82.5731L81.5388 26.5057H76.1398L75.1054 29.7006H72.2197ZM76.9017 24.1034H80.7355L79.1254 19.1749H78.4738L76.9017 24.1034Z" fill="white"/>
<path d="M87.7178 29.7005V16.7036H92.7859C94.3948 16.7036 95.6727 17.0689 96.6197 17.7996C97.5667 18.5303 98.0379 19.6067 98.0333 21.029V21.3116C98.0635 22.1489 97.8361 22.9754 97.3816 23.6794C96.9401 24.3175 96.3183 24.8094 95.5957 25.0925L98.8986 29.7005H95.544L92.7169 25.5647H90.6138V29.7005H87.7178ZM93.0169 19.1575H90.6035V23.2934H93.0169C93.2922 23.3068 93.5675 23.2636 93.8254 23.1664C94.0834 23.0692 94.3187 22.92 94.5166 22.7282C94.7134 22.5329 94.8673 22.2987 94.9682 22.0405C95.0691 21.7823 95.1149 21.5058 95.1027 21.2289C95.1136 20.9542 95.0672 20.6802 94.9663 20.4244C94.8653 20.1687 94.7122 19.9368 94.5166 19.7435C94.3209 19.5472 94.0865 19.3938 93.8283 19.2929C93.5702 19.1921 93.2938 19.146 93.0169 19.1575Z" fill="white"/>
<path d="M103.296 29.7006V19.3334H99.6729V16.8105H109.833V19.3334H106.192V29.7006H103.296Z" fill="white"/>
<path d="M13.3984 8.76264C13.4321 8.80669 13.4558 8.85761 13.4677 8.9118C13.4796 8.96599 13.4795 9.02214 13.4673 9.07628C13.2768 9.90167 13.1614 10.7426 13.1226 11.5888C13.0967 12.0698 13.0967 12.5519 13.1226 13.0329V13.0708C13.1339 13.1557 13.116 13.2418 13.0717 13.3151C13.0274 13.3884 12.9594 13.4443 12.879 13.4737C12.7985 13.503 12.7104 13.504 12.6293 13.4765C12.5483 13.449 12.479 13.3946 12.433 13.3224L5.79621 4.63714C5.76077 4.59135 5.71532 4.55428 5.66332 4.52877C5.61133 4.50327 5.55418 4.49002 5.49626 4.49002C5.43835 4.49002 5.38122 4.50327 5.32922 4.52877C5.27723 4.55428 5.23175 4.59135 5.19631 4.63714C4.32601 5.76766 3.7376 7.08916 3.47979 8.49223C3.22199 9.89529 3.30221 11.3396 3.71381 12.7055C3.8782 13.2678 4.10002 13.8118 4.37576 14.3288C4.60847 14.7625 4.87476 15.1773 5.17218 15.5695C5.56957 16.0876 6.02281 16.5603 6.52369 16.9792C7.47399 17.7812 8.58085 18.3769 9.77389 18.7281C10.9669 19.0794 12.22 19.1786 13.4535 19.0195C13.8629 18.9748 14.2678 18.8953 14.6637 18.7817C15.1855 18.6448 15.6925 18.4567 16.1772 18.2199L16.2255 18.2027L16.391 18.12L16.4496 18.089C16.7944 18.6714 17.2219 19.2298 17.6149 19.8122C17.7011 19.9398 17.7907 20.0638 17.8735 20.1914C18.0286 20.4257 18.1803 20.6601 18.3182 20.9013L18.2389 20.9461C17.7224 21.2328 17.184 21.4782 16.6289 21.6803C15.7008 22.0298 14.7324 22.2613 13.7466 22.3696C13.0602 22.4508 12.3682 22.4739 11.678 22.4385C11.4263 22.4385 11.1746 22.404 10.9264 22.3765C8.24571 22.0773 5.73791 20.905 3.78965 19.0402C3.32896 18.5975 2.90253 18.1205 2.51402 17.6133C2.21503 17.2224 1.93986 16.8138 1.69002 16.3898C1.3563 15.815 1.07143 15.2132 0.838428 14.5907C-0.0154417 12.3953 -0.222447 10.0013 0.2419 7.69194C0.706248 5.38259 1.82253 3.25449 3.45869 1.55938C3.88742 1.11583 4.34837 0.704571 4.83776 0.328967C5.19358 0.065154 5.63959 -0.0467214 6.07785 0.0178976C6.51611 0.0825165 6.91081 0.318348 7.17529 0.673621L13.3984 8.76264Z" fill="white"/>
<path d="M116.757 35.6146L109.81 40.55C109.727 40.6083 109.629 40.6426 109.528 40.6492C109.427 40.6557 109.326 40.6344 109.236 40.5874C109.147 40.5404 109.072 40.4696 109.019 40.3827C108.967 40.2959 108.94 40.1964 108.941 40.0951V37.1345H108.979H108.01C105.434 37.169 39.9628 37.2 32.1193 37.2138C31.2781 37.2138 30.7058 37.2138 30.261 36.6279L24.0897 28.5526C24.059 28.5103 24.0372 28.4623 24.0253 28.4114C24.0135 28.3605 24.0119 28.3078 24.0207 28.2562C24.1544 27.574 24.2374 26.8828 24.2689 26.1883C24.304 25.5253 24.289 24.8605 24.2241 24.1997C24.2275 24.1572 24.2275 24.1146 24.2241 24.0721C24.2068 23.9856 24.2206 23.8957 24.2631 23.8182C24.3055 23.7408 24.3738 23.6807 24.4561 23.6487C24.5384 23.6166 24.6294 23.6145 24.713 23.6428C24.7967 23.6711 24.8677 23.7279 24.9137 23.8033L31.6712 32.6471C31.7066 32.6929 31.752 32.73 31.804 32.7555C31.856 32.781 31.9132 32.7943 31.9711 32.7943C32.029 32.7943 32.0861 32.781 32.1381 32.7555C32.1901 32.73 32.2356 32.6929 32.271 32.6471C33.0974 31.5728 33.6704 30.3258 33.9474 28.9992C34.2244 27.6726 34.1982 26.3006 33.8708 24.9855C33.7088 24.3271 33.468 23.6906 33.1537 23.0899C32.9103 22.6051 32.6229 22.1436 32.2952 21.7113C31.9251 21.2333 31.5107 20.7913 31.0575 20.3913C30.1017 19.5581 28.98 18.9371 27.7664 18.5693C26.5528 18.2016 25.2749 18.0954 24.0173 18.2578C23.5084 18.319 23.0063 18.4275 22.5175 18.5818C22.1265 18.6951 21.7459 18.8416 21.3798 19.0195C21.3522 19.0195 21.3246 19.0437 21.297 19.0609L21.2591 19.085C21.2219 19.007 21.1804 18.9311 21.135 18.8575C20.8573 18.4067 20.5546 17.9717 20.2283 17.5548L20.1765 17.4824C19.9628 17.186 19.7525 16.8896 19.5594 16.5828C19.5267 16.4976 19.5261 16.4033 19.5578 16.3177C19.5896 16.2321 19.6514 16.1609 19.7318 16.1175C19.9835 15.9866 20.2421 15.8556 20.4662 15.7729C21.5076 15.3418 22.6042 15.0588 23.7242 14.9319C24.4106 14.8506 25.1026 14.8276 25.7928 14.863C26.0411 14.863 26.2927 14.8975 26.5444 14.925C29.2795 15.2359 31.8319 16.4528 33.7949 18.3819C34.1993 18.7833 34.576 19.2117 34.9223 19.664C35.2627 20.1083 35.5714 20.5759 35.8463 21.0633C36.1994 21.6836 36.4993 22.3328 36.7427 23.0037C37.328 24.639 37.5617 26.3794 37.4287 28.1111C37.2956 29.8428 36.7987 31.5271 35.9704 33.0538C48.6372 33.0538 83.4244 33.0538 85.4689 33.0538L108.958 33.0056V30.2277C108.955 30.1255 108.981 30.0246 109.033 29.9363C109.084 29.8479 109.159 29.7756 109.249 29.7273C109.339 29.6791 109.441 29.6568 109.543 29.663C109.645 29.6692 109.743 29.7036 109.827 29.7624L116.774 34.6909C116.846 34.7454 116.903 34.816 116.943 34.897C116.982 34.978 117.002 35.0671 117 35.1571C116.998 35.2471 116.975 35.3355 116.933 35.415C116.891 35.4944 116.83 35.5628 116.757 35.6146Z" fill="white"/>
<path opacity="0.5" d="M20.1386 17.472C20.049 17.3548 19.9628 17.2342 19.8766 17.1273C19.7904 17.0205 19.656 16.8137 19.556 16.6517C19.5398 16.6314 19.528 16.6079 19.5215 16.5828C19.7146 16.8792 19.9249 17.1756 20.1386 17.472Z" fill="white"/>
<path d="M0.883414 30.1944L8.98838 24.0138C9.03224 23.9799 9.08327 23.9564 9.1376 23.9451C9.19194 23.9338 9.24816 23.935 9.30197 23.9486C9.96301 24.1011 10.6345 24.2044 11.311 24.2576C11.9665 24.3131 12.6252 24.3223 13.2821 24.2851C13.3645 24.2799 13.4463 24.3015 13.5154 24.3465C13.5845 24.3915 13.6371 24.4575 13.6654 24.5348C13.6937 24.6121 13.6961 24.6963 13.6724 24.7751C13.6487 24.8539 13.6 24.9229 13.5336 24.9718L4.86698 31.5678C4.82047 31.6038 4.78282 31.6498 4.75692 31.7025C4.73103 31.7552 4.71756 31.813 4.71756 31.8717C4.71756 31.9303 4.73103 31.9882 4.75692 32.0409C4.78282 32.0936 4.82047 32.1396 4.86698 32.1756C5.9408 32.9966 7.18667 33.5656 8.51181 33.8402C9.83695 34.1149 11.2072 34.0881 12.5205 33.7619C13.1807 33.6025 13.8202 33.3675 14.4262 33.0614C14.9106 32.8172 15.3719 32.5299 15.8045 32.203C16.2832 31.8354 16.7252 31.4226 17.1244 30.9704C18.024 29.9468 18.6728 28.7291 19.0196 27.4131C19.3631 26.1141 19.4032 24.7539 19.1368 23.437C19.0015 22.7771 18.7862 22.1361 18.4959 21.5279C18.0897 20.762 17.6145 20.0345 17.0761 19.3544C16.0349 17.9262 15.3283 16.2836 15.0085 14.5473C14.9568 14.2589 14.912 13.967 14.881 13.6752C14.8023 12.9914 14.7827 12.3021 14.8224 11.615C14.8224 11.3025 14.8707 10.9866 14.912 10.6742C15.2715 7.97865 16.5215 5.47913 18.4649 3.57C18.8352 3.20064 19.2301 2.8565 19.6468 2.53991C20.1335 2.16826 20.6472 1.83314 21.1837 1.5373C21.813 1.19216 22.4714 0.902621 23.1514 0.672019C25.3254 -0.0645904 27.6626 -0.18198 29.8999 0.333037C32.1373 0.848054 34.186 1.97503 35.8154 3.58717C36.2106 3.98115 36.579 4.401 36.9181 4.84389L37.0353 4.99497C37.2959 5.35168 37.4058 5.79597 37.3414 6.23249C37.2769 6.66902 37.0433 7.06298 36.6907 7.32983L28.7201 13.3936C28.6761 13.4272 28.6252 13.4508 28.571 13.4627C28.5168 13.4745 28.4607 13.4744 28.4065 13.4623C27.7452 13.3103 27.0738 13.2059 26.3975 13.1498C25.7391 13.102 25.0781 13.1008 24.4195 13.1464C24.3371 13.1516 24.2553 13.13 24.1862 13.085C24.1171 13.04 24.0645 12.974 24.0362 12.8967C24.0079 12.8194 24.0055 12.7351 24.0292 12.6564C24.0529 12.5776 24.1016 12.5086 24.168 12.4597L32.7312 5.93578C32.7771 5.90014 32.8142 5.85455 32.8397 5.80249C32.8651 5.75043 32.8784 5.69326 32.8784 5.63534C32.8784 5.57741 32.8651 5.52024 32.8397 5.46818C32.8142 5.41612 32.7771 5.37054 32.7312 5.33489C31.6806 4.49452 30.4537 3.90045 29.1413 3.59672C27.829 3.293 26.4649 3.28739 25.1501 3.58031C24.4848 3.73506 23.8396 3.96548 23.2272 4.26704C22.68 4.53225 22.1606 4.85083 21.6765 5.21814C21.2553 5.53664 20.8643 5.89295 20.5083 6.28258C19.6476 7.22287 18.998 8.33523 18.6028 9.54547C18.2077 10.7557 18.076 12.036 18.2167 13.3009C18.2704 13.8092 18.3708 14.3114 18.5165 14.8014C18.6893 15.3908 18.9383 15.9552 19.2574 16.4805C19.3953 16.7208 19.5469 16.9543 19.702 17.1878L19.9604 17.5655C20.3533 18.1286 20.7633 18.6848 21.1252 19.2823C21.4343 19.761 21.6919 20.2708 21.8936 20.8034C22.2464 21.7504 22.478 22.7379 22.5828 23.7426C22.6374 24.2351 22.6627 24.7304 22.6586 25.2259C22.6546 25.6448 22.6282 26.0631 22.5794 26.4792C22.271 29.2188 21.0448 31.7748 19.0989 33.7344C18.6984 34.138 18.27 34.5132 17.817 34.8572C17.372 35.195 16.9046 35.5025 16.4179 35.7774C15.7977 36.1291 15.1487 36.4278 14.4778 36.6702C12.3138 37.4352 9.97846 37.5834 7.73451 37.0981C5.49055 36.6128 3.42699 35.5133 1.77592 33.9233C1.33244 33.4963 0.921244 33.0372 0.545702 32.5498C0.41133 32.3736 0.31341 32.1725 0.257617 31.9583C0.201827 31.744 0.189269 31.5209 0.220683 31.3018C0.252097 31.0827 0.32685 30.872 0.440615 30.6819C0.554377 30.4918 0.70489 30.3261 0.883414 30.1944Z" fill="white"/>
</svg>
