<svg width="254" height="440" viewBox="0 0 254 440" fill="none" xmlns="http://www.w3.org/2000/svg">
<path d="M199.983 166.715C199.983 152.132 199.887 137.549 199.697 122.966L198.695 27.9256C198.645 21.287 195.925 14.9371 191.127 10.2604C186.33 5.58362 179.845 2.95932 173.086 2.9595V2.9595C164.411 3.02313 155.753 3.74345 147.191 5.11414C114.566 10.3276 84.1424 24.6062 59.5165 46.2622C34.8907 67.9183 17.0919 96.0463 8.22386 127.322C5.72908 136.126 3.99022 145.119 3.02566 154.209C2.23751 160.956 1.90299 167.747 2.02422 174.537C2.08762 183.342 2.85296 192.128 4.31329 200.815C10.5477 237.486 28.7794 271.163 56.247 296.745C58.8222 299.04 61.4928 301.429 64.1634 303.537C66.8341 305.645 70.2677 308.221 73.7013 310.797C75.752 312.25 77.8026 313.608 79.8532 314.92C81.9039 316.231 83.1915 317.074 84.9083 318.058C90.0175 321.136 95.2863 323.95 100.694 326.489C104.032 328.035 107.656 329.581 111.71 331.173C115.763 332.766 118.959 333.796 123.394 335.155L133.504 337.918C136.508 338.621 139.465 339.277 142.612 339.886L147.381 340.729C148.764 340.729 150.1 341.15 151.483 341.291C158.629 342.241 165.828 342.758 173.038 342.837V342.837C179.76 342.763 186.184 340.101 190.929 335.424C195.674 330.746 198.359 324.426 198.409 317.824L199.267 235.899C199.267 220.769 199.267 205.452 199.267 189.527C200.031 181.938 200.03 174.397 199.983 166.715Z" stroke="url(#paint0_linear_228_1373)" stroke-width="4" stroke-miterlimit="10"/>
<path d="M219.012 326.945C219.012 336.821 219.077 346.697 219.207 356.573L219.89 420.938C219.924 425.434 221.779 429.734 225.05 432.901C228.32 436.068 232.742 437.846 237.351 437.846V437.846C243.266 437.803 249.168 437.315 255.006 436.386C277.251 432.856 297.994 423.186 314.784 408.52C331.575 393.853 343.71 374.804 349.757 353.623C351.458 347.661 352.643 341.57 353.301 335.415C353.838 330.845 354.066 326.246 353.984 321.647C353.94 315.685 353.419 309.734 352.423 303.851C348.172 279.016 335.741 256.209 317.013 238.884C315.258 237.33 313.437 235.712 311.616 234.284C309.795 232.857 307.454 231.112 305.113 229.367C303.715 228.384 302.316 227.464 300.918 226.576C299.52 225.688 298.642 225.117 297.472 224.451C293.988 222.366 290.396 220.46 286.709 218.74C284.433 217.694 281.962 216.647 279.198 215.568C276.434 214.49 274.256 213.792 271.232 212.872L264.338 211C262.29 210.524 260.274 210.08 258.128 209.668L254.876 209.097C253.933 209.097 253.023 208.811 252.08 208.716C247.208 208.073 242.299 207.723 237.383 207.669V207.669C232.8 207.719 228.42 209.522 225.185 212.69C221.95 215.858 220.119 220.138 220.085 224.609L219.499 280.091C219.499 290.337 219.499 300.711 219.499 311.496C218.979 316.635 218.979 321.742 219.012 326.945Z" stroke="#50CAE3" stroke-width="4" stroke-miterlimit="10"/>
<defs>
<linearGradient id="paint0_linear_228_1373" x1="13.1914" y1="2.95956" x2="217.388" y2="12.2217" gradientUnits="userSpaceOnUse">
<stop stop-color="#FD7B23"/>
<stop offset="1" stop-color="#FEB62B"/>
</linearGradient>
</defs>
</svg>
