<svg width="392" height="565" viewBox="0 0 392 565" fill="none" xmlns="http://www.w3.org/2000/svg">
<g style="mix-blend-mode:screen" opacity="0.1">
<path d="M60.924 142.542C61.2758 143.174 61.4825 143.874 61.5291 144.592C61.5757 145.311 61.4611 146.031 61.1935 146.699C57.0227 157.007 53.7989 167.669 51.5609 178.555C50.2654 184.732 49.2835 190.971 48.6189 197.247L48.5417 197.737C48.5177 198.859 48.1075 199.938 47.3791 200.795C46.6507 201.652 45.6477 202.236 44.5363 202.451C43.4249 202.665 42.2716 202.497 41.2676 201.974C40.2635 201.451 39.4688 200.605 39.0151 199.575L-30.0515 73.5022C-30.4215 72.8366 -30.9403 72.2633 -31.5681 71.8262C-32.1958 71.3892 -32.9158 71.1001 -33.6729 70.981C-34.43 70.8618 -35.2041 70.9157 -35.9358 71.1388C-36.6674 71.3619 -37.3371 71.7481 -37.8937 72.2678C-51.5923 85.0967 -61.9892 100.989 -68.219 118.623C-74.4489 136.257 -76.3318 155.122 -73.7111 173.65C-72.7077 181.267 -70.9161 188.764 -68.3646 196.023C-66.2147 202.106 -63.576 208.009 -60.474 213.677C-56.3506 221.221 -51.3903 228.289 -45.6852 234.747C-34.8963 247.084 -21.6399 257.071 -6.75932 264.072C8.12128 271.074 24.3005 274.937 40.7495 275.415C46.1927 275.676 51.647 275.479 57.0537 274.827C64.1509 274.108 71.1598 272.716 77.9841 270.67C77.9841 270.67 78.4348 270.741 78.6502 270.546L81.8566 269.542C85.4023 277.826 89.6283 285.897 93.5797 294.245L96.1876 299.684C97.7383 303.037 99.2439 306.382 100.555 309.789L99.4344 310.161C92.09 312.803 84.5513 314.887 76.8839 316.395C64.0354 318.982 50.9083 319.987 37.8009 319.386C28.663 319.024 19.5698 317.899 10.6182 316.022C7.37317 315.511 4.15318 314.548 0.964284 313.68C-33.4696 304.293 -63.8648 283.959 -85.5347 255.813C-90.6554 249.135 -95.2582 242.084 -99.3038 234.72C-102.416 229.045 -105.181 223.19 -107.583 217.188C-110.853 209.1 -113.433 200.758 -115.297 192.248C-121.986 162.074 -119.815 130.662 -109.04 101.726C-98.2656 72.7906 -79.3375 47.5426 -54.4954 28.9685C-47.9953 24.0813 -41.1283 19.6909 -33.9536 15.8355C-28.7623 13.1653 -22.7084 12.6414 -17.1143 14.3785C-11.5202 16.1155 -6.84063 19.9723 -4.09803 25.1062L60.924 142.542Z" fill="#2C4468"/>
<path d="M326.795 349.487C330.138 358.245 332.725 367.266 334.527 376.452C340.169 406.06 337.356 436.612 326.405 464.669C315.454 492.726 296.798 517.177 272.537 535.271C266.021 540.131 259.15 544.507 251.98 548.362C246.783 551.033 240.722 551.556 235.121 549.818C229.52 548.079 224.835 544.22 222.088 539.084L157.775 421.806C157.439 421.202 157.238 420.534 157.187 419.847C157.136 419.161 157.234 418.471 157.476 417.826C160.596 409.261 163.09 400.483 164.94 391.561C166.743 383.047 167.916 374.412 168.451 365.725L168.711 364.074C168.761 362.999 169.164 361.971 169.861 361.146C170.557 360.322 171.508 359.747 172.568 359.509C173.628 359.272 174.739 359.384 175.73 359.83C176.722 360.276 177.539 361.03 178.058 361.978L248.476 490.414C248.847 491.08 249.366 491.654 249.995 492.091C250.623 492.529 251.344 492.818 252.102 492.937C252.86 493.057 253.635 493.003 254.368 492.78C255.1 492.557 255.771 492.17 256.328 491.65C269.289 479.449 279.292 464.503 285.592 447.923C291.893 431.344 294.328 413.56 292.717 395.894C291.957 387.025 290.12 378.275 287.246 369.834C285.043 363.048 282.207 356.477 278.775 350.207C274.949 343.242 270.439 336.665 265.311 330.572C254.5 317.814 241.085 307.462 225.951 300.2C210.817 292.938 194.308 288.931 177.517 288.444C170.735 288.173 163.945 288.528 157.235 289.505C151.891 290.192 146.613 291.303 141.452 292.829C141.051 292.912 140.66 293.034 140.285 293.194L139.739 293.428C139.41 292.342 139.023 291.273 138.578 290.227C135.077 281.627 130.387 273.525 126.117 265.399C124.944 263.156 123.868 260.883 122.844 258.572C122.575 257.947 122.438 257.275 122.441 256.596C122.444 255.917 122.588 255.246 122.863 254.626C123.139 254.005 123.54 253.447 124.042 252.986C124.544 252.525 125.137 252.171 125.783 251.946C129.344 250.769 132.995 249.606 136.052 248.989C150.577 245.561 165.521 244.157 180.453 244.818C189.6 245.196 198.702 246.338 207.66 248.232C210.954 248.75 214.178 249.715 217.371 250.583C252.736 260.263 283.821 281.426 305.623 310.665C310.109 316.687 314.167 323.011 317.765 329.589C321.22 336.016 324.237 342.664 326.795 349.487Z" fill="#2C4468"/>
<path d="M367.622 169.071L249.303 233.094C248.662 233.446 247.949 233.649 247.217 233.685C246.486 233.721 245.756 233.59 245.083 233.302C236.781 229.956 228.242 227.231 219.535 225.149C211.106 223.08 202.541 221.609 193.904 220.747C192.82 220.646 191.797 220.197 190.99 219.468C190.182 218.739 189.632 217.769 189.421 216.703C189.211 215.637 189.352 214.532 189.824 213.553C190.295 212.574 191.071 211.773 192.036 211.271L318.529 142.978C319.209 142.605 319.794 142.081 320.239 141.447C320.685 140.813 320.979 140.085 321.1 139.32C321.22 138.555 321.164 137.772 320.934 137.031C320.705 136.291 320.309 135.613 319.777 135.048C307.469 122.133 292.401 112.152 275.695 105.85C258.99 99.5481 241.078 97.0869 223.292 98.6497C214.361 99.375 205.544 101.13 197.019 103.881C190.204 106.074 183.602 108.877 177.292 112.255C170.299 116.07 163.691 120.55 157.561 125.632C143.734 137.143 132.778 151.702 125.555 168.162C118.411 184.408 115.095 202.075 115.862 219.805C116.27 228.693 117.759 237.499 120.294 246.031C124.014 256.858 128.713 267.325 134.333 277.304C144.969 298.075 150.803 320.959 151.405 344.271C151.487 348.141 151.471 352.041 151.276 355.913C150.897 364.997 149.737 374.031 147.808 382.916C147.166 386.993 145.889 391.016 144.708 395.008C134.487 429.444 113.063 459.495 83.8166 480.421C78.2311 484.481 72.3781 488.161 66.2973 491.438C59.1913 495.289 51.8083 498.608 44.2088 501.368C35.2993 504.581 26.1241 507.008 16.7886 508.623C-13.0564 513.775 -43.7563 510.513 -71.8561 499.203C-99.9558 487.894 -124.34 468.986 -142.264 444.607C-146.606 438.656 -150.545 432.422 -154.054 425.947L-155.271 423.735C-157.934 418.546 -158.454 412.523 -156.718 406.959C-154.982 401.395 -151.128 396.734 -145.985 393.975L-29.6567 331.2C-29.0137 330.852 -28.3017 330.649 -27.5712 330.605C-26.8407 330.561 -26.1094 330.678 -25.4289 330.947C-17.123 334.287 -8.5875 337.027 0.111336 339.145C8.59373 341.12 17.2056 342.491 25.8819 343.247C26.9661 343.349 27.9885 343.798 28.7963 344.527C29.6042 345.256 30.1543 346.226 30.3645 347.292C30.5746 348.358 30.4335 349.463 29.9623 350.442C29.4911 351.421 28.715 352.222 27.7499 352.724L-97.2473 420.287C-97.9178 420.658 -98.4946 421.177 -98.9338 421.804C-99.373 422.431 -99.663 423.15 -99.782 423.906C-99.901 424.662 -99.8458 425.435 -99.6204 426.167C-99.395 426.898 -99.0055 427.569 -98.4814 428.128C-86.5153 441.249 -71.7458 451.517 -55.2669 458.173C-38.7879 464.828 -21.022 467.699 -3.28545 466.574C5.70195 465.919 14.5834 464.236 23.184 461.557C30.8595 459.219 38.2833 456.127 45.3464 452.327C51.4899 449.035 57.3178 445.188 62.7567 440.834C75.9051 430.33 86.6555 417.147 94.2908 402.166C101.926 387.185 106.271 370.748 107.035 353.954C107.38 347.212 107.103 340.452 106.21 333.76C105.169 325.715 103.083 317.839 100.003 310.331C98.7002 306.912 97.2037 303.554 95.6623 300.189L93.0699 294.731C89.1068 286.577 84.905 278.478 81.4166 269.94C78.3712 263.059 76.0615 255.878 74.5259 248.515C71.8732 235.435 70.8836 222.074 71.5806 208.749C71.8813 202.21 72.5686 195.695 73.639 189.238C74.5512 183.78 75.7553 178.376 77.246 173.047C86.8913 137.931 108.121 107.094 137.505 85.5144C143.554 81.0703 149.906 77.0535 156.517 73.493C163.01 69.9977 169.733 66.9448 176.64 64.3553C185.445 61.0384 194.516 58.4725 203.757 56.6856C233.53 51.1422 264.269 53.9988 292.516 64.9338C320.763 75.8688 345.398 94.4484 363.649 118.583C368.552 125.064 372.968 131.898 376.861 139.028C378.25 141.604 379.113 144.428 379.401 147.338C379.688 150.248 379.393 153.186 378.534 155.98C377.674 158.775 376.267 161.371 374.394 163.618C372.521 165.865 370.219 167.719 367.622 169.071Z" fill="#003D72"/>
</g>
</svg>
