<svg width="840" height="991" viewBox="0 0 840 991" fill="none" xmlns="http://www.w3.org/2000/svg">
<g style="mix-blend-mode:screen" opacity="0.1">
<path d="M496.822 276.562C497.001 277.617 496.944 278.696 496.654 279.722C496.364 280.748 495.849 281.696 495.145 282.497C484.234 294.822 474.469 308.11 465.97 322.197C461.111 330.178 456.66 338.399 452.633 346.83L452.283 347.477C451.696 349.03 450.59 350.333 449.151 351.17C447.711 352.006 446.022 352.326 444.365 352.076C442.708 351.827 441.182 351.022 440.039 349.797C438.896 348.571 438.205 346.998 438.08 345.337L403.953 135.282C403.765 134.17 403.324 133.114 402.664 132.194C402.004 131.274 401.142 130.515 400.144 129.975C399.146 129.434 398.039 129.127 396.908 129.077C395.777 129.027 394.651 129.236 393.618 129.686C368.165 140.825 345.806 157.87 328.404 179.403C311.001 200.936 299.056 226.334 293.564 253.485C291.202 264.611 290 275.959 289.976 287.35C289.973 296.9 290.74 306.442 292.27 315.884C294.298 328.45 297.731 340.762 302.503 352.593C311.467 375.139 325.036 395.623 342.345 412.743C359.655 429.863 380.327 443.244 403.047 452.035C410.515 455.087 418.224 457.506 426.091 459.267C436.351 461.768 446.82 463.287 457.354 463.801C457.354 463.801 457.948 464.123 458.345 463.958L463.316 464.14C464.173 477.452 466.085 490.803 467.477 504.404L468.431 513.283C468.939 518.728 469.388 524.14 469.536 529.542L467.788 529.508C456.233 529.568 444.683 528.753 433.238 527.071C414.029 524.336 395.213 519.256 377.216 511.945C364.642 506.926 352.508 500.865 340.942 493.826C336.665 491.51 332.648 488.575 328.626 485.789C285.206 455.683 252.829 412.294 236.486 362.313C232.638 350.464 229.696 338.35 227.687 326.075C226.146 316.618 225.179 307.082 224.791 297.519C224.221 284.617 224.74 271.7 226.342 258.903C231.908 213.49 250.451 170.723 279.778 135.662C309.105 100.601 347.99 74.7125 391.832 61.059C403.317 57.4486 415.069 54.7128 426.986 52.8755C435.55 51.7126 444.257 53.9713 451.206 59.1582C458.156 64.3451 462.782 72.0386 464.074 80.5578L496.822 276.562Z" fill="#2C4468"/>
<path d="M765.668 696.674C766.009 710.548 765.164 724.414 763.143 738.125C756.395 782.232 737.382 823.48 708.242 857.228C679.102 890.976 640.991 915.886 598.197 929.156C586.704 932.722 574.953 935.435 563.042 937.274C554.47 938.435 545.753 936.172 538.795 930.98C531.837 925.788 527.204 918.089 525.908 909.564L494.071 714.131C493.9 713.122 493.95 712.091 494.218 711.107C494.485 710.123 494.963 709.209 495.62 708.429C504.203 698.016 512.019 686.998 519.007 675.459C525.728 664.467 531.63 652.997 536.667 641.137L537.845 638.961C538.445 637.485 539.516 636.25 540.895 635.443C542.274 634.637 543.885 634.304 545.481 634.496C547.078 634.687 548.572 635.393 549.736 636.505C550.9 637.616 551.668 639.073 551.924 640.652L586.77 854.673C586.959 855.785 587.4 856.843 588.061 857.763C588.723 858.684 589.586 859.444 590.585 859.985C591.584 860.526 592.692 860.833 593.824 860.884C594.957 860.934 596.083 860.726 597.118 860.275C621.232 849.648 642.574 833.729 659.554 813.703C676.534 793.677 688.716 770.059 695.191 744.609C698.511 731.856 700.269 718.738 700.427 705.538C700.702 694.98 699.99 684.409 698.297 673.964C696.397 662.354 693.351 650.948 689.204 639.912C680.417 616.768 666.806 595.696 649.272 578.087C631.737 560.479 610.677 546.734 587.484 537.761C578.154 534.034 568.502 531.176 558.654 529.225C550.857 527.545 542.942 526.49 534.986 526.07C534.387 525.988 533.78 525.965 533.177 526.003L532.3 526.061C532.378 524.382 532.365 522.699 532.261 521.02C531.621 507.288 529.077 493.665 527.131 480.215C526.602 476.506 526.223 472.803 525.936 469.072C525.869 468.067 526.009 467.06 526.349 466.115C526.689 465.169 527.22 464.304 527.911 463.574C528.602 462.843 529.438 462.262 530.366 461.867C531.294 461.472 532.296 461.271 533.309 461.276C538.861 461.392 544.531 461.572 549.101 462.221C571.065 464.61 592.614 470.031 613.126 478.328C625.706 483.372 637.844 489.46 649.411 496.528C653.752 498.878 657.775 501.817 661.801 504.605C706.376 535.579 739.307 580.466 755.293 632.038C758.581 642.659 761.121 653.487 762.893 664.445C764.541 675.121 765.468 685.888 765.668 696.674Z" fill="#2C4468"/>
<path d="M911.747 465.049L715.004 495.967C713.935 496.142 712.84 496.072 711.801 495.761C710.763 495.45 709.808 494.907 709.011 494.173C699.078 485.403 688.506 477.382 677.384 470.178C666.642 463.127 655.415 456.844 643.787 451.377C642.324 450.699 641.119 449.568 640.351 448.152C639.584 446.735 639.295 445.11 639.528 443.518C639.761 441.927 640.504 440.454 641.645 439.32C642.786 438.187 644.265 437.453 645.86 437.228L856.118 404.389C857.252 404.204 858.327 403.762 859.262 403.097C860.197 402.432 860.967 401.562 861.513 400.553C862.059 399.545 862.367 398.424 862.413 397.277C862.458 396.131 862.241 394.989 861.776 393.938C850.978 369.835 834.878 348.465 814.676 331.42C794.475 314.375 770.692 302.094 745.099 295.491C732.276 292.093 719.105 290.188 705.849 289.817C695.255 289.512 684.656 290.163 674.183 291.761C662.539 293.633 651.105 296.622 640.039 300.686C615.058 309.922 592.578 324.829 574.369 344.234C556.375 363.379 543.023 386.397 535.337 411.52C531.518 424.126 529.246 437.151 528.571 450.309C528.416 467.256 529.804 484.185 532.719 500.887C537.305 535.128 534.145 569.946 523.473 602.777C521.675 608.217 519.727 613.653 517.543 618.96C512.528 631.451 506.447 643.486 499.368 654.933C496.459 660.306 492.689 665.289 489.07 670.278C457.799 713.289 413.059 744.648 361.909 759.408C352.109 762.315 342.123 764.562 332.018 766.131C320.199 767.996 308.256 768.982 296.288 769.081C282.267 769.165 268.263 768.021 254.437 765.664C210.241 758.116 169.008 738.401 135.377 708.741C101.747 679.08 77.0541 640.65 64.0784 597.776C60.9586 587.326 58.5407 576.68 56.8403 565.911L56.2347 562.224C55.0798 553.666 57.329 545.004 62.4997 538.097C67.6704 531.189 75.3505 526.586 83.8915 525.277L277.239 495.117C278.309 494.949 279.403 495.017 280.444 495.317C281.485 495.617 282.448 496.141 283.265 496.852C293.207 505.615 303.766 513.654 314.86 520.907C325.722 527.852 337.064 534.018 348.799 539.358C350.262 540.036 351.467 541.167 352.235 542.583C353.002 544 353.291 545.625 353.058 547.217C352.824 548.808 352.082 550.281 350.941 551.414C349.799 552.548 348.321 553.282 346.726 553.507L138.914 586.067C137.795 586.254 136.734 586.693 135.812 587.351C134.889 588.009 134.129 588.869 133.59 589.865C133.051 590.861 132.746 591.967 132.699 593.1C132.652 594.232 132.865 595.361 133.32 596.4C143.54 620.621 159.081 642.245 178.792 659.671C198.504 677.097 221.88 689.878 247.188 697.067C260.054 700.592 273.28 702.629 286.606 703.138C298.473 703.665 310.36 703.017 322.094 701.202C332.294 699.641 342.327 697.15 352.068 693.76C375.605 685.594 397.118 672.506 415.173 655.369C433.227 638.231 447.408 617.439 456.768 594.379C460.579 585.14 463.532 575.569 465.59 565.788C468.11 554.047 469.088 542.025 468.498 530.025C468.368 524.61 467.938 519.185 467.449 513.728L466.526 504.83C465.022 491.494 463.158 478.115 462.506 464.476C461.654 453.37 461.977 442.207 463.47 431.174C466.228 411.609 471.445 392.474 478.998 374.222C482.647 365.245 486.824 356.492 491.507 348.009C495.475 340.843 499.825 333.895 504.537 327.194C535.34 282.951 580.196 250.398 631.862 234.794C642.498 231.579 653.348 229.11 664.331 227.406C675.119 225.734 686.01 224.794 696.928 224.591C710.854 224.31 724.781 225.209 738.56 227.279C782.849 234.247 824.337 253.414 858.358 282.624C892.379 311.835 917.584 349.931 931.136 392.626C934.777 404.093 937.566 415.811 939.477 427.684C940.144 431.964 939.954 436.333 938.918 440.536C937.881 444.738 936.019 448.692 933.44 452.168C930.86 455.644 927.615 458.572 923.891 460.783C920.167 462.995 916.039 464.444 911.747 465.049Z" fill="#003D72"/>
</g>
</svg>
