<svg width="565" height="565" viewBox="0 0 565 565" fill="none" xmlns="http://www.w3.org/2000/svg">
<g style="mix-blend-mode:screen" opacity="0.1">
<path d="M233.924 142.542C234.276 143.174 234.483 143.874 234.529 144.592C234.576 145.311 234.461 146.031 234.194 146.699C230.023 157.007 226.799 167.669 224.561 178.555C223.265 184.732 222.283 190.971 221.619 197.247L221.542 197.737C221.518 198.859 221.108 199.938 220.379 200.795C219.651 201.652 218.648 202.236 217.536 202.451C216.425 202.665 215.272 202.497 214.268 201.974C213.263 201.451 212.469 200.605 212.015 199.575L142.949 73.5022C142.579 72.8366 142.06 72.2633 141.432 71.8262C140.804 71.3892 140.084 71.1001 139.327 70.981C138.57 70.8618 137.796 70.9157 137.064 71.1388C136.333 71.3619 135.663 71.7481 135.106 72.2678C121.408 85.0967 111.011 100.989 104.781 118.623C98.5511 136.257 96.6682 155.122 99.2889 173.65C100.292 181.267 102.084 188.764 104.635 196.023C106.785 202.106 109.424 208.009 112.526 213.677C116.649 221.221 121.61 228.289 127.315 234.747C138.104 247.084 151.36 257.071 166.241 264.072C181.121 271.074 197.3 274.937 213.75 275.415C219.193 275.676 224.647 275.479 230.054 274.827C237.151 274.108 244.16 272.716 250.984 270.67C250.984 270.67 251.435 270.741 251.65 270.546L254.857 269.542C258.402 277.826 262.628 285.897 266.58 294.245L269.188 299.684C270.738 303.037 272.244 306.382 273.555 309.789L272.434 310.161C265.09 312.803 257.551 314.887 249.884 316.395C237.035 318.982 223.908 319.987 210.801 319.386C201.663 319.024 192.57 317.899 183.618 316.022C180.373 315.511 177.153 314.548 173.964 313.68C139.53 304.293 109.135 283.959 87.4653 255.813C82.3446 249.135 77.7418 242.084 73.6962 234.72C70.584 229.045 67.8192 223.19 65.4169 217.188C62.1469 209.1 59.5667 200.758 57.7033 192.248C51.0136 162.074 53.1846 130.662 63.9595 101.726C74.7344 72.7906 93.6625 47.5426 118.505 28.9685C125.005 24.0813 131.872 19.6909 139.046 15.8355C144.238 13.1653 150.292 12.6414 155.886 14.3785C161.48 16.1155 166.159 19.9723 168.902 25.1062L233.924 142.542Z" fill="#2C4468"/>
<path d="M499.795 349.487C503.138 358.245 505.725 367.266 507.527 376.452C513.169 406.06 510.356 436.612 499.405 464.669C488.454 492.726 469.798 517.177 445.537 535.271C439.021 540.131 432.15 544.507 424.98 548.362C419.783 551.033 413.722 551.556 408.121 549.818C402.52 548.079 397.835 544.22 395.088 539.084L330.775 421.806C330.439 421.202 330.238 420.534 330.187 419.847C330.136 419.161 330.234 418.471 330.476 417.826C333.596 409.261 336.09 400.483 337.94 391.561C339.743 383.047 340.916 374.412 341.451 365.725L341.711 364.074C341.761 362.999 342.164 361.971 342.861 361.146C343.557 360.322 344.508 359.747 345.568 359.509C346.628 359.272 347.739 359.384 348.73 359.83C349.722 360.276 350.539 361.03 351.058 361.978L421.476 490.414C421.847 491.08 422.366 491.654 422.995 492.091C423.623 492.529 424.344 492.818 425.102 492.937C425.86 493.057 426.635 493.003 427.368 492.78C428.1 492.557 428.771 492.17 429.328 491.65C442.289 479.449 452.292 464.503 458.592 447.923C464.893 431.344 467.328 413.56 465.717 395.894C464.957 387.025 463.12 378.275 460.246 369.834C458.043 363.048 455.207 356.477 451.775 350.207C447.949 343.242 443.439 336.665 438.311 330.572C427.5 317.814 414.085 307.462 398.951 300.2C383.817 292.938 367.308 288.931 350.517 288.444C343.735 288.173 336.945 288.528 330.235 289.505C324.891 290.192 319.613 291.303 314.452 292.829C314.051 292.912 313.66 293.034 313.285 293.194L312.739 293.428C312.41 292.342 312.023 291.273 311.578 290.227C308.077 281.627 303.387 273.525 299.117 265.399C297.944 263.156 296.868 260.883 295.844 258.572C295.575 257.947 295.438 257.275 295.441 256.596C295.444 255.917 295.588 255.246 295.863 254.626C296.139 254.005 296.54 253.447 297.042 252.986C297.544 252.525 298.137 252.171 298.783 251.946C302.344 250.769 305.995 249.606 309.052 248.989C323.577 245.561 338.521 244.157 353.453 244.818C362.6 245.196 371.702 246.338 380.66 248.232C383.954 248.75 387.178 249.715 390.371 250.583C425.736 260.263 456.821 281.426 478.623 310.665C483.109 316.687 487.167 323.011 490.765 329.589C494.22 336.016 497.237 342.664 499.795 349.487Z" fill="#2C4468"/>
<path d="M540.622 169.071L422.303 233.094C421.662 233.446 420.949 233.649 420.217 233.685C419.486 233.721 418.756 233.59 418.083 233.302C409.781 229.956 401.242 227.231 392.535 225.149C384.106 223.08 375.541 221.609 366.904 220.747C365.82 220.646 364.797 220.197 363.99 219.468C363.182 218.739 362.632 217.769 362.421 216.703C362.211 215.637 362.352 214.532 362.824 213.553C363.295 212.574 364.071 211.773 365.036 211.271L491.529 142.978C492.209 142.605 492.794 142.081 493.239 141.447C493.685 140.813 493.979 140.085 494.1 139.32C494.22 138.555 494.164 137.772 493.934 137.031C493.705 136.291 493.309 135.613 492.777 135.048C480.469 122.133 465.401 112.152 448.695 105.85C431.99 99.5481 414.078 97.0869 396.292 98.6497C387.361 99.375 378.544 101.13 370.019 103.881C363.204 106.074 356.602 108.877 350.292 112.255C343.299 116.07 336.691 120.55 330.561 125.632C316.734 137.143 305.778 151.702 298.555 168.162C291.411 184.408 288.095 202.075 288.862 219.805C289.27 228.693 290.759 237.499 293.294 246.031C297.014 256.858 301.713 267.325 307.333 277.304C317.969 298.075 323.803 320.959 324.405 344.271C324.487 348.141 324.471 352.041 324.276 355.913C323.897 364.997 322.737 374.031 320.808 382.916C320.166 386.993 318.889 391.016 317.708 395.008C307.487 429.444 286.063 459.495 256.817 480.421C251.231 484.481 245.378 488.161 239.297 491.438C232.191 495.289 224.808 498.608 217.209 501.368C208.299 504.581 199.124 507.008 189.789 508.623C159.944 513.775 129.244 510.513 101.144 499.203C73.0442 487.894 48.66 468.986 30.7356 444.607C26.394 438.656 22.4554 432.422 18.9459 425.947L17.7293 423.735C15.0655 418.546 14.5459 412.523 16.282 406.959C18.0182 401.395 21.8717 396.734 27.0155 393.975L143.343 331.2C143.986 330.852 144.698 330.649 145.429 330.605C146.159 330.561 146.891 330.678 147.571 330.947C155.877 334.287 164.412 337.027 173.111 339.145C181.594 341.12 190.206 342.491 198.882 343.247C199.966 343.349 200.988 343.798 201.796 344.527C202.604 345.256 203.154 346.226 203.364 347.292C203.575 348.358 203.434 349.463 202.962 350.442C202.491 351.421 201.715 352.222 200.75 352.724L75.7527 420.287C75.0822 420.658 74.5054 421.177 74.0662 421.804C73.627 422.431 73.337 423.15 73.218 423.906C73.099 424.662 73.1542 425.435 73.3796 426.167C73.605 426.898 73.9945 427.569 74.5186 428.128C86.4847 441.249 101.254 451.517 117.733 458.173C134.212 464.828 151.978 467.699 169.715 466.574C178.702 465.919 187.583 464.236 196.184 461.557C203.86 459.219 211.283 456.127 218.346 452.327C224.49 449.035 230.318 445.188 235.757 440.834C248.905 430.33 259.655 417.147 267.291 402.166C274.926 387.185 279.271 370.748 280.035 353.954C280.38 347.212 280.103 340.452 279.21 333.76C278.169 325.715 276.083 317.839 273.003 310.331C271.7 306.912 270.204 303.554 268.662 300.189L266.07 294.731C262.107 286.577 257.905 278.478 254.417 269.94C251.371 263.059 249.061 255.878 247.526 248.515C244.873 235.435 243.884 222.074 244.581 208.749C244.881 202.21 245.569 195.695 246.639 189.238C247.551 183.78 248.755 178.376 250.246 173.047C259.891 137.931 281.121 107.094 310.505 85.5144C316.554 81.0703 322.906 77.0535 329.517 73.493C336.01 69.9977 342.733 66.9448 349.64 64.3553C358.445 61.0384 367.516 58.4725 376.757 56.6856C406.53 51.1422 437.269 53.9988 465.516 64.9338C493.763 75.8688 518.398 94.4484 536.649 118.583C541.552 125.064 545.968 131.898 549.861 139.028C551.25 141.604 552.113 144.428 552.401 147.338C552.688 150.248 552.393 153.186 551.534 155.98C550.674 158.775 549.267 161.371 547.394 163.618C545.521 165.865 543.219 167.719 540.622 169.071Z" fill="#003D72"/>
</g>
</svg>
