<svg width="12" height="12" viewBox="0 0 12 12" fill="none" xmlns="http://www.w3.org/2000/svg">
<path d="M6 3.20532C4.375 3.20532 3.08008 4.52563 3.08008 6.12524C3.08008 7.75024 4.375 9.04517 6 9.04517C7.59961 9.04517 8.91992 7.75024 8.91992 6.12524C8.91992 4.52563 7.59961 3.20532 6 3.20532ZM6 8.02954C4.95898 8.02954 4.0957 7.19165 4.0957 6.12524C4.0957 5.08423 4.93359 4.24634 6 4.24634C7.04102 4.24634 7.87891 5.08423 7.87891 6.12524C7.87891 7.19165 7.04102 8.02954 6 8.02954ZM9.70703 3.10376C9.70703 2.7229 9.40234 2.41821 9.02148 2.41821C8.64062 2.41821 8.33594 2.7229 8.33594 3.10376C8.33594 3.48462 8.64062 3.78931 9.02148 3.78931C9.40234 3.78931 9.70703 3.48462 9.70703 3.10376ZM11.6367 3.78931C11.5859 2.87524 11.3828 2.06274 10.7227 1.40259C10.0625 0.742432 9.25 0.539307 8.33594 0.488525C7.39648 0.437744 4.57812 0.437744 3.63867 0.488525C2.72461 0.539307 1.9375 0.742432 1.25195 1.40259C0.591797 2.06274 0.388672 2.87524 0.337891 3.78931C0.287109 4.72876 0.287109 7.54712 0.337891 8.48657C0.388672 9.40063 0.591797 10.1877 1.25195 10.8733C1.9375 11.5334 2.72461 11.7366 3.63867 11.7874C4.57812 11.8381 7.39648 11.8381 8.33594 11.7874C9.25 11.7366 10.0625 11.5334 10.7227 10.8733C11.3828 10.1877 11.5859 9.40063 11.6367 8.48657C11.6875 7.54712 11.6875 4.72876 11.6367 3.78931ZM10.418 9.47681C10.2402 9.98462 9.83398 10.3655 9.35156 10.5686C8.58984 10.8733 6.8125 10.7971 6 10.7971C5.16211 10.7971 3.38477 10.8733 2.64844 10.5686C2.14062 10.3655 1.75977 9.98462 1.55664 9.47681C1.25195 8.74048 1.32812 6.96313 1.32812 6.12524C1.32812 5.31274 1.25195 3.5354 1.55664 2.77368C1.75977 2.29126 2.14062 1.9104 2.64844 1.70728C3.38477 1.40259 5.16211 1.47876 6 1.47876C6.8125 1.47876 8.58984 1.40259 9.35156 1.70728C9.83398 1.88501 10.2148 2.29126 10.418 2.77368C10.7227 3.5354 10.6465 5.31274 10.6465 6.12524C10.6465 6.96313 10.7227 8.74048 10.418 9.47681Z" fill="white"/>
</svg>
