<svg width="31" height="26" viewBox="0 0 31 26" fill="none" xmlns="http://www.w3.org/2000/svg">
<path d="M9.90625 1.03516C10.4336 1.5625 10.4922 2.44141 9.96484 3.02734L5.74609 7.71484C5.51172 7.94922 5.16016 8.125 4.75 8.125C4.39844 8.18359 3.98828 8.00781 3.75391 7.71484L1.41016 5.37109C0.824219 4.84375 0.824219 3.96484 1.41016 3.4375C1.9375 2.85156 2.81641 2.85156 3.34375 3.4375L4.69141 4.72656L7.91406 1.09375C8.44141 0.566406 9.32031 0.507812 9.90625 1.03516ZM9.90625 10.4102C10.4336 10.8789 10.4922 11.8164 9.96484 12.4023L5.74609 17.0898C5.51172 17.3242 5.16016 17.5 4.75 17.5C4.39844 17.5586 3.98828 17.3828 3.75391 17.0898L1.41016 14.7461C0.824219 14.2188 0.824219 13.3398 1.41016 12.7539C1.9375 12.2266 2.81641 12.2266 3.34375 12.7539L4.69141 14.1016L7.91406 10.4688C8.44141 9.94141 9.32031 9.88281 9.90625 10.4102ZM14.125 4.375C14.125 3.37891 14.9453 2.5 16 2.5H29.125C30.1211 2.5 31 3.37891 31 4.375C31 5.42969 30.1211 6.25 29.125 6.25H16C14.9453 6.25 14.125 5.42969 14.125 4.375ZM14.125 13.75C14.125 12.7539 14.9453 11.875 16 11.875H29.125C30.1211 11.875 31 12.7539 31 13.75C31 14.8047 30.1211 15.625 29.125 15.625H16C14.9453 15.625 14.125 14.8047 14.125 13.75ZM10.375 23.125C10.375 22.1289 11.1953 21.25 12.25 21.25H29.125C30.1211 21.25 31 22.1289 31 23.125C31 24.1797 30.1211 25 29.125 25H12.25C11.1953 25 10.375 24.1797 10.375 23.125ZM1 23.125C1 21.6016 2.23047 20.3125 3.8125 20.3125C5.33594 20.3125 6.625 21.6016 6.625 23.125C6.625 24.707 5.33594 25.9375 3.8125 25.9375C2.23047 25.9375 1 24.707 1 23.125Z" fill="white"/>
</svg>
