<svg width="34" height="31" viewBox="0 0 34 31" fill="none" xmlns="http://www.w3.org/2000/svg">
<path d="M23.9062 7.78125C23.9062 11.0039 19.5703 16.6875 17.6953 19.0312C17.2852 19.6172 16.4062 19.6172 15.9961 19.0312C14.1211 16.6875 9.84375 11.0039 9.84375 7.78125C9.84375 3.91406 12.9492 0.75 16.875 0.75C20.7422 0.75 23.9062 3.91406 23.9062 7.78125ZM16.875 9.65625C18.1641 9.65625 19.2188 8.66016 19.2188 7.3125C19.2188 6.02344 18.1641 4.96875 16.875 4.96875C15.5273 4.96875 14.5312 6.02344 14.5312 7.3125C14.5312 8.66016 15.5273 9.65625 16.875 9.65625ZM24.9023 11.2969C24.9609 11.2383 24.9609 11.1797 25.0195 11.1211L31.8164 8.36719C32.6953 8.01562 33.75 8.66016 33.75 9.65625V25.5352C33.75 26.1211 33.3984 26.6484 32.8125 26.8828L24.375 30.2227V12.5273C24.5508 12.1172 24.7266 11.707 24.9023 11.2969ZM8.78906 11.2969C8.96484 11.707 9.14062 12.1172 9.375 12.5273V27.2344L1.875 30.2227C0.996094 30.5742 0 29.9297 0 28.9336V13.0547C0 12.4688 0.292969 11.9414 0.878906 11.7656L8.02734 8.89453C8.20312 9.71484 8.4375 10.5352 8.78906 11.2969ZM19.1602 20.2031C19.9805 19.207 21.2695 17.5664 22.5 15.6914V30.3398L11.25 27.1172V15.6914C12.4219 17.5664 13.7109 19.207 14.5312 20.2031C15.7031 21.7266 17.9883 21.7266 19.1602 20.2031Z" fill="white"/>
</svg>
