<svg width="32" height="31" viewBox="0 0 32 31" fill="none" xmlns="http://www.w3.org/2000/svg">
<path d="M25.668 13.6992L12.0156 27.3516L10.0234 25.3594L10.2578 25.125H7.5625C7.03516 25.125 6.625 24.7148 6.625 24.1875V21.4922L6.39062 21.7266C6.09766 22.0195 5.92188 22.3125 5.80469 22.7227L4.45703 27.293L9.02734 25.9453C9.37891 25.8281 9.73047 25.6523 10.0234 25.3594L12.0156 27.3516C11.4297 27.9375 10.668 28.4062 9.84766 28.6406L2.75781 30.6914C2.28906 30.8672 1.76172 30.75 1.41016 30.3398C1 29.9883 0.882812 29.4609 1 28.9922L3.10938 21.9023C3.34375 21.082 3.8125 20.3203 4.39844 19.7344L18.0508 6.08203L25.668 13.6992ZM29.8281 4.20703C31.293 5.67188 31.293 8.07422 29.8281 9.53906L27.0156 12.3516L19.3984 4.73438L22.2109 1.92188C23.6758 0.457031 26.0781 0.457031 27.543 1.92188L29.8281 4.20703Z" fill="white"/>
</svg>
