<svg width="32" height="32" viewBox="0 0 32 32" fill="none" xmlns="http://www.w3.org/2000/svg">
<path d="M30.2969 27.7656L23.2656 20.7344C24.8477 18.3906 25.668 15.4609 25.2578 12.2969C24.4961 6.90625 20.1016 2.57031 14.7695 1.86719C6.80078 0.871094 0.0625 7.60938 1.05859 15.5781C1.76172 20.9102 6.09766 25.3047 11.4883 26.0664C14.6523 26.4766 17.582 25.6562 19.9844 24.0742L26.957 31.1055C27.8945 31.9844 29.3594 31.9844 30.2969 31.1055C31.1758 30.168 31.1758 28.7031 30.2969 27.7656ZM5.62891 13.9375C5.62891 9.83594 8.96875 6.4375 13.1289 6.4375C17.2305 6.4375 20.6289 9.83594 20.6289 13.9375C20.6289 18.0977 17.2305 21.4375 13.1289 21.4375C8.96875 21.4375 5.62891 18.0977 5.62891 13.9375Z" fill="white"/>
</svg>
