<svg width="38" height="31" viewBox="0 0 38 31" fill="none" xmlns="http://www.w3.org/2000/svg">
<path d="M18.6914 19.5C22.0898 19.5 24.7852 16.8047 24.7852 13.4062C24.7852 10.0664 22.0312 7.3125 18.6914 7.3125C15.3516 7.3125 12.6562 10.0664 12.6562 13.4062C12.5977 16.8047 15.3516 19.5 18.6914 19.5ZM21.6211 21.375H15.8203C11.1914 21.375 7.5 24.8906 7.5 29.2266C7.5 30.1055 8.20312 30.75 9.14062 30.75H28.3008C29.2383 30.75 30 30.1055 30 29.2266C30 24.8906 26.25 21.375 21.6211 21.375ZM30 10.125C32.5781 10.125 34.6875 8.07422 34.6875 5.4375C34.6875 2.85938 32.5781 0.75 30 0.75C27.3633 0.75 25.3125 2.85938 25.3125 5.4375C25.3125 8.07422 27.3633 10.125 30 10.125ZM10.7227 13.4062C10.7227 13.1133 10.7812 12.8203 10.8398 12.5273C10.1953 12.1758 9.49219 12 8.73047 12H5.15625C2.28516 12 0 14.4609 0 17.5078C0 18.0938 0.410156 18.5625 0.996094 18.5625H12.7148C11.4844 17.2148 10.7227 15.3984 10.7227 13.4062ZM7.5 10.125C10.0781 10.125 12.1875 8.07422 12.1875 5.4375C12.1875 2.85938 10.0781 0.75 7.5 0.75C4.86328 0.75 2.8125 2.85938 2.8125 5.4375C2.8125 8.07422 4.86328 10.125 7.5 10.125ZM32.2852 12H28.7109C27.9492 12 27.2461 12.2344 26.6016 12.5273C26.6016 12.8203 26.6602 13.1133 26.6602 13.4062C26.6602 15.3984 25.957 17.2148 24.7266 18.5625H36.4453C37.0312 18.5625 37.5 18.0938 37.5 17.5078C37.5 14.4609 35.1562 12 32.2852 12Z" fill="white"/>
</svg>
