<svg width="30" height="27" viewBox="0 0 30 27" fill="none" xmlns="http://www.w3.org/2000/svg">
<path d="M0 9.94141V9.64844C0 5.54688 2.92969 2.03125 6.97266 1.38672C9.60938 0.917969 12.3633 1.79688 14.2969 3.73047L15 4.375L15.6445 3.73047C17.5781 1.79688 20.332 0.917969 22.9688 1.38672C27.0117 2.03125 30 5.54688 30 9.64844V9.94141C30 12.4023 28.9453 14.7461 27.1875 16.3867L16.582 26.2891C16.1719 26.6992 15.5859 26.875 15 26.875C14.3555 26.875 13.7695 26.6992 13.3594 26.2891L2.75391 16.3867C0.996094 14.7461 0 12.4023 0 9.94141Z" fill="white"/>
</svg>
