<svg width="30" height="31" viewBox="0 0 30 31" fill="none" xmlns="http://www.w3.org/2000/svg">
<path d="M10.7812 0.75C12.5391 0.75 14.0625 2.27344 14.0625 4.03125V27.4688C14.0625 29.2852 12.5391 30.75 10.7812 30.75C9.08203 30.75 7.67578 29.5195 7.5 27.8203C7.20703 27.9375 6.85547 27.9375 6.5625 27.9375C4.45312 27.9375 2.8125 26.2969 2.8125 24.1875C2.8125 23.7773 2.87109 23.3672 2.98828 22.957C1.23047 22.3125 0 20.6133 0 18.5625C0 16.7461 1.05469 15.1055 2.63672 14.3438C2.16797 13.6992 1.875 12.8789 1.875 12C1.875 10.2422 3.10547 8.71875 4.80469 8.36719C4.6875 8.01562 4.6875 7.66406 4.6875 7.3125C4.6875 5.61328 5.85938 4.08984 7.5 3.67969C7.67578 2.03906 9.08203 0.75 10.7812 0.75ZM22.4414 3.67969C24.082 4.08984 25.3125 5.61328 25.3125 7.3125C25.3125 7.66406 25.2539 8.01562 25.1367 8.36719C26.8359 8.71875 28.125 10.2422 28.125 12C28.125 12.8789 27.7734 13.6992 27.3047 14.3438C28.8867 15.1055 30 16.7461 30 18.5625C30 20.6133 28.7109 22.3125 26.9531 22.957C27.0703 23.3672 27.1875 23.7773 27.1875 24.1875C27.1875 26.2969 25.4883 27.9375 23.4375 27.9375C23.0859 27.9375 22.7344 27.9375 22.4414 27.8203C22.2656 29.5195 20.8594 30.75 19.2188 30.75C17.4023 30.75 15.9375 29.2852 15.9375 27.4688V4.03125C15.9375 2.27344 17.4023 0.75 19.2188 0.75C20.8594 0.75 22.2656 2.03906 22.4414 3.67969Z" fill="white"/>
</svg>
