<svg width="260" height="374" viewBox="0 0 260 374" fill="none" xmlns="http://www.w3.org/2000/svg">
<path d="M-71.9714 94.924C-71.9714 119.51 -71.813 144.095 -71.496 168.681L-69.832 328.91C-69.7483 340.102 -65.2282 350.807 -57.257 358.691C-49.2859 366.576 -38.5102 371 -27.2792 371V371C-12.8642 370.893 1.52109 369.678 15.7488 367.368C69.959 358.578 120.511 334.506 161.43 297.996C202.348 261.486 231.923 214.065 246.658 161.337C250.804 146.495 253.693 131.332 255.296 116.009C256.605 104.633 257.161 93.1843 256.96 81.736C256.854 66.8925 255.583 52.0801 253.156 37.4345C242.797 -24.3899 212.503 -81.166 166.862 -124.294C162.583 -128.164 158.146 -132.191 153.708 -135.745C149.271 -139.299 143.565 -143.642 137.86 -147.985C134.452 -150.433 131.045 -152.723 127.638 -154.934C124.23 -157.146 122.091 -158.567 119.238 -160.225C110.749 -165.414 101.994 -170.159 93.0092 -174.44C87.4623 -177.046 81.44 -179.652 74.7044 -182.337C67.9689 -185.022 62.6598 -186.759 55.2903 -189.049L38.4912 -193.708C33.4989 -194.893 28.5859 -195.998 23.356 -197.025L15.4319 -198.447C13.1339 -198.447 10.9151 -199.157 8.61709 -199.394C-3.25676 -200.996 -15.2186 -201.867 -27.2001 -202V-202C-38.3695 -201.876 -49.044 -197.389 -56.9276 -189.502C-64.8112 -181.616 -69.2741 -170.962 -69.3565 -159.83L-70.7829 -21.7135C-70.7829 3.79349 -70.7829 29.6166 -70.7829 56.4661C-72.0507 69.2591 -72.0507 81.9731 -71.9714 94.924Z" stroke="#50CAE3" stroke-width="5" stroke-miterlimit="10"/>
</svg>
