<svg width="162" height="268" viewBox="0 0 162 268" fill="none" xmlns="http://www.w3.org/2000/svg">
<path d="M244.979 233.304C244.979 212.795 244.863 192.285 244.629 171.776L243.405 38.1121C243.344 28.7757 240.019 19.8453 234.156 13.2679C228.292 6.69057 220.366 2.99978 212.105 3.00004V3.00004C201.502 3.08952 190.921 4.10257 180.455 6.03029C140.58 13.3625 103.396 33.4438 73.2979 63.9006C43.1997 94.3574 21.4456 133.916 10.6069 177.902C7.55769 190.284 5.43241 202.932 4.2535 215.715C3.2902 225.205 2.88135 234.756 3.02952 244.306C3.107 256.688 4.04243 269.045 5.82726 281.262C13.4471 332.837 35.7303 380.2 69.3018 416.178C72.4493 419.405 75.7134 422.765 78.9775 425.73C82.2416 428.694 86.4382 432.317 90.6349 435.94C93.1413 437.983 95.6476 439.893 98.1539 441.738C100.66 443.582 102.234 444.768 104.332 446.151C110.577 450.48 117.017 454.438 123.625 458.009C127.705 460.183 132.135 462.357 137.09 464.597C142.044 466.837 145.949 468.286 151.37 470.196L163.727 474.083C167.399 475.071 171.013 475.993 174.86 476.85L180.688 478.036C182.379 478.036 184.011 478.629 185.701 478.826C194.435 480.163 203.234 480.889 212.047 481V481C220.263 480.897 228.114 477.153 233.913 470.575C239.712 463.996 242.995 455.108 243.056 445.822L244.105 330.604C244.105 309.326 244.105 287.784 244.105 265.386C245.037 254.714 245.037 244.108 244.979 233.304Z" stroke="#50CAE3" stroke-width="5" stroke-miterlimit="10"/>
</svg>
